<?xml version="1.0" encoding="UTF-8" standalone="no"?><svg xmlns="http://www.w3.org/2000/svg" xmlns:xlink="http://www.w3.org/1999/xlink" contentScriptType="application/ecmascript" contentStyleType="text/css" height="523px" preserveAspectRatio="none" style="width:582px;height:523px;" version="1.1" viewBox="0 0 582 523" width="582px" zoomAndPan="magnify"><defs><filter height="300%" id="f1q89wo1d0t799" width="300%" x="-1" y="-1"><feGaussianBlur result="blurOut" stdDeviation="2.0"/><feColorMatrix in="blurOut" result="blurOut2" type="matrix" values="0 0 0 0 0 0 0 0 0 0 0 0 0 0 0 0 0 0 .4 0"/><feOffset dx="4.0" dy="4.0" in="blurOut2" result="blurOut3"/><feBlend in="SourceGraphic" in2="blurOut3" mode="normal"/></filter></defs><g><line style="stroke:#A80036;stroke-width:1.0;stroke-dasharray:5.0,5.0;" x1="50" x2="50" y1="88.7999" y2="417.8001"/><line style="stroke:#A80036;stroke-width:1.0;stroke-dasharray:5.0,5.0;" x1="292.5" x2="292.5" y1="88.7999" y2="417.8001"/><line style="stroke:#A80036;stroke-width:1.0;stroke-dasharray:5.0,5.0;" x1="531" x2="531" y1="88.7999" y2="417.8001"/><text fill="#000000" font-family="sans-serif" font-size="14" lengthAdjust="spacing" textLength="85" x="5" y="85.9999">Data Provider</text><ellipse cx="50.5" cy="15" fill="#FEFECE" filter="url(#f1q89wo1d0t799)" rx="8" ry="8" style="stroke:#A80036;stroke-width:2.0;"/><path d="M50.5,23 L50.5,50 M37.5,31 L63.5,31 M50.5,50 L37.5,65 M50.5,50 L63.5,65 " fill="none" filter="url(#f1q89wo1d0t799)" style="stroke:#A80036;stroke-width:2.0;"/><text fill="#000000" font-family="sans-serif" font-size="14" lengthAdjust="spacing" textLength="85" x="5" y="430.8">Data Provider</text><ellipse cx="50.5" cy="443.6" fill="#FEFECE" filter="url(#f1q89wo1d0t799)" rx="8" ry="8" style="stroke:#A80036;stroke-width:2.0;"/><path d="M50.5,451.6 L50.5,478.6 M37.5,459.6 L63.5,459.6 M50.5,478.6 L37.5,493.6 M50.5,478.6 L63.5,493.6 " fill="none" filter="url(#f1q89wo1d0t799)" style="stroke:#A80036;stroke-width:2.0;"/><rect fill="#FEFECE" filter="url(#f1q89wo1d0t799)" height="30.7999" style="stroke:#A80036;stroke-width:1.5;" width="96" x="242.5" y="53"/><text fill="#000000" font-family="sans-serif" font-size="14" lengthAdjust="spacing" textLength="82" x="249.5" y="73.9999">Web Browser</text><rect fill="#FEFECE" filter="url(#f1q89wo1d0t799)" height="30.7999" style="stroke:#A80036;stroke-width:1.5;" width="96" x="242.5" y="416.8001"/><text fill="#000000" font-family="sans-serif" font-size="14" lengthAdjust="spacing" textLength="82" x="249.5" y="437.8">Web Browser</text><rect fill="#FEFECE" filter="url(#f1q89wo1d0t799)" height="30.7999" style="stroke:#A80036;stroke-width:1.5;" width="77" x="491" y="53"/><text fill="#000000" font-family="sans-serif" font-size="14" lengthAdjust="spacing" textLength="63" x="498" y="73.9999">Dataverse</text><rect fill="#FEFECE" filter="url(#f1q89wo1d0t799)" height="30.7999" style="stroke:#A80036;stroke-width:1.5;" width="77" x="491" y="416.8001"/><text fill="#000000" font-family="sans-serif" font-size="14" lengthAdjust="spacing" textLength="63" x="498" y="437.8">Dataverse</text><polygon fill="#A80036" points="280.5,116.3999,290.5,120.3999,280.5,124.3999,284.5,120.3999" style="stroke:#A80036;stroke-width:1.0;"/><line style="stroke:#A80036;stroke-width:1.0;" x1="50.5" x2="286.5" y1="120.3999" y2="120.3999"/><text fill="#000000" font-family="sans-serif" font-size="13" lengthAdjust="spacing" textLength="177" x="57.5" y="115.7999">type the URL of Root Dataverse</text><polygon fill="#A80036" points="519.5,146,529.5,150,519.5,154,523.5,150" style="stroke:#A80036;stroke-width:1.0;"/><line style="stroke:#A80036;stroke-width:1.0;" x1="292.5" x2="525.5" y1="150" y2="150"/><text fill="#000000" font-family="sans-serif" font-size="13" lengthAdjust="spacing" textLength="191" x="299.5" y="145.4">request:Top (root Dataverse) page</text><polygon fill="#A80036" points="303.5,175.6,293.5,179.6,303.5,183.6,299.5,179.6" style="stroke:#A80036;stroke-width:1.0;"/><line style="stroke:#A80036;stroke-width:1.0;" x1="297.5" x2="530.5" y1="179.6" y2="179.6"/><text fill="#000000" font-family="sans-serif" font-size="13" lengthAdjust="spacing" textLength="107" x="309.5" y="175">response:Top page</text><polygon fill="#A80036" points="280.5,205.2,290.5,209.2,280.5,213.2,284.5,209.2" style="stroke:#A80036;stroke-width:1.0;"/><line style="stroke:#A80036;stroke-width:1.0;" x1="50.5" x2="286.5" y1="209.2" y2="209.2"/><text fill="#000000" font-family="sans-serif" font-size="13" lengthAdjust="spacing" textLength="218" x="57.5" y="204.6">click "Add Data/New Dataverse" option</text><polygon fill="#A80036" points="519.5,234.8,529.5,238.8,519.5,242.8,523.5,238.8" style="stroke:#A80036;stroke-width:1.0;"/><line style="stroke:#A80036;stroke-width:1.0;" x1="292.5" x2="525.5" y1="238.8" y2="238.8"/><text fill="#000000" font-family="sans-serif" font-size="13" lengthAdjust="spacing" textLength="215" x="299.5" y="234.2">request: New Dataverse Creation page</text><polygon fill="#A80036" points="303.5,264.4,293.5,268.4,303.5,272.4,299.5,268.4" style="stroke:#A80036;stroke-width:1.0;"/><line style="stroke:#A80036;stroke-width:1.0;" x1="297.5" x2="530.5" y1="268.4" y2="268.4"/><text fill="#000000" font-family="sans-serif" font-size="13" lengthAdjust="spacing" textLength="175" x="309.5" y="263.8">response: Datavese creation UI</text><line style="stroke:#A80036;stroke-width:1.0;" x1="50.5" x2="92.5" y1="298" y2="298"/><line style="stroke:#A80036;stroke-width:1.0;" x1="92.5" x2="92.5" y1="298" y2="311"/><line style="stroke:#A80036;stroke-width:1.0;" x1="51.5" x2="92.5" y1="311" y2="311"/><polygon fill="#A80036" points="61.5,307,51.5,311,61.5,315,57.5,311" style="stroke:#A80036;stroke-width:1.0;"/><text fill="#000000" font-family="sans-serif" font-size="13" lengthAdjust="spacing" textLength="144" x="57.5" y="293.4">prepare a Dataverse Alias</text><polygon fill="#A80036" points="280.5,336.6,290.5,340.6,280.5,344.6,284.5,340.6" style="stroke:#A80036;stroke-width:1.0;"/><line style="stroke:#A80036;stroke-width:1.0;" x1="50.5" x2="286.5" y1="340.6" y2="340.6"/><text fill="#000000" font-family="sans-serif" font-size="13" lengthAdjust="spacing" textLength="185" x="57.5" y="336">enter required data in the UI form</text><polygon fill="#A80036" points="519.5,366.2001,529.5,370.2001,519.5,374.2001,523.5,370.2001" style="stroke:#A80036;stroke-width:1.0;"/><line style="stroke:#A80036;stroke-width:1.0;" x1="292.5" x2="525.5" y1="370.2001" y2="370.2001"/><text fill="#000000" font-family="sans-serif" font-size="13" lengthAdjust="spacing" textLength="154" x="299.5" y="365.6">request: Dataverse creation</text><polygon fill="#A80036" points="303.5,395.8001,293.5,399.8001,303.5,403.8001,299.5,399.8001" style="stroke:#A80036;stroke-width:1.0;"/><line style="stroke:#A80036;stroke-width:1.0;" x1="297.5" x2="530.5" y1="399.8001" y2="399.8001"/><text fill="#000000" font-family="sans-serif" font-size="13" lengthAdjust="spacing" textLength="203" x="309.5" y="395.2001">response: OK (render success page)</text><text fill="#888888" font-family="sans-serif" font-size="10" lengthAdjust="spacing" textLength="122" x="227.5" y="514.6">Note: log-in step is excluded</text><!--MD5=[daba6ddd128898a7256465dbbe48ce5d]
@startuml
'title Dataverse-side Initial Setup: Create a New Dataverse
actor "Data Provider" as dp
participant "Web Browser" as wb
'participant TRSA as trsa
'participant "File Storage" as fs
participant  Dataverse as dv
'participant "Notary Service" as ns

dp -> wb: type the URL of Root Dataverse
wb -> dv: request:Top (root Dataverse) page
dv -> wb: response:Top page
dp -> wb: click "Add Data/New Dataverse" option
wb -> dv: request: New Dataverse Creation page
dv -> wb: response: Datavese creation UI
dp -> dp: prepare a Dataverse Alias
dp -> wb: enter required data in the UI form
wb -> dv: request: Dataverse creation
dv -> wb: response: OK (render success page)
footer Note: log-in step is excluded
@enduml

@startuml
actor "Data Provider" as dp
participant "Web Browser" as wb
participant  Dataverse as dv

dp -> wb: type the URL of Root Dataverse
wb -> dv: request:Top (root Dataverse) page
dv -> wb: response:Top page
dp -> wb: click "Add Data/New Dataverse" option
wb -> dv: request: New Dataverse Creation page
dv -> wb: response: Datavese creation UI
dp -> dp: prepare a Dataverse Alias
dp -> wb: enter required data in the UI form
wb -> dv: request: Dataverse creation
dv -> wb: response: OK (render success page)
footer Note: log-in step is excluded
@enduml

PlantUML version 1.2021.4(Sun Apr 04 08:49:39 GMT 2021)
(GPL source distribution)
Java Runtime: OpenJDK Runtime Environment
JVM: OpenJDK 64-Bit Server VM
Default Encoding: UTF-8
Language: en
Country: US
--></g></svg>