<?xml version="1.0" encoding="UTF-8" standalone="no"?><svg xmlns="http://www.w3.org/2000/svg" xmlns:xlink="http://www.w3.org/1999/xlink" contentScriptType="application/ecmascript" contentStyleType="text/css" height="611px" preserveAspectRatio="none" style="width:580px;height:611px;" version="1.1" viewBox="0 0 580 611" width="580px" zoomAndPan="magnify"><defs><filter height="300%" id="f1ifuz688whxgh" width="300%" x="-1" y="-1"><feGaussianBlur result="blurOut" stdDeviation="2.0"/><feColorMatrix in="blurOut" result="blurOut2" type="matrix" values="0 0 0 0 0 0 0 0 0 0 0 0 0 0 0 0 0 0 .4 0"/><feOffset dx="4.0" dy="4.0" in="blurOut2" result="blurOut3"/><feBlend in="SourceGraphic" in2="blurOut3" mode="normal"/></filter></defs><g><line style="stroke:#A80036;stroke-width:1.0;stroke-dasharray:5.0,5.0;" x1="50" x2="50" y1="88.7999" y2="506.6001"/><line style="stroke:#A80036;stroke-width:1.0;stroke-dasharray:5.0,5.0;" x1="279.5" x2="279.5" y1="88.7999" y2="506.6001"/><line style="stroke:#A80036;stroke-width:1.0;stroke-dasharray:5.0,5.0;" x1="529" x2="529" y1="88.7999" y2="506.6001"/><text fill="#000000" font-family="sans-serif" font-size="14" lengthAdjust="spacing" textLength="85" x="5" y="85.9999">Data Provider</text><ellipse cx="50.5" cy="15" fill="#FEFECE" filter="url(#f1ifuz688whxgh)" rx="8" ry="8" style="stroke:#A80036;stroke-width:2.0;"/><path d="M50.5,23 L50.5,50 M37.5,31 L63.5,31 M50.5,50 L37.5,65 M50.5,50 L63.5,65 " fill="none" filter="url(#f1ifuz688whxgh)" style="stroke:#A80036;stroke-width:2.0;"/><text fill="#000000" font-family="sans-serif" font-size="14" lengthAdjust="spacing" textLength="85" x="5" y="519.6">Data Provider</text><ellipse cx="50.5" cy="532.4" fill="#FEFECE" filter="url(#f1ifuz688whxgh)" rx="8" ry="8" style="stroke:#A80036;stroke-width:2.0;"/><path d="M50.5,540.4 L50.5,567.4 M37.5,548.4 L63.5,548.4 M50.5,567.4 L37.5,582.4 M50.5,567.4 L63.5,582.4 " fill="none" filter="url(#f1ifuz688whxgh)" style="stroke:#A80036;stroke-width:2.0;"/><rect fill="#FEFECE" filter="url(#f1ifuz688whxgh)" height="30.7999" style="stroke:#A80036;stroke-width:1.5;" width="96" x="229.5" y="53"/><text fill="#000000" font-family="sans-serif" font-size="14" lengthAdjust="spacing" textLength="82" x="236.5" y="73.9999">Web Browser</text><rect fill="#FEFECE" filter="url(#f1ifuz688whxgh)" height="30.7999" style="stroke:#A80036;stroke-width:1.5;" width="96" x="229.5" y="505.6001"/><text fill="#000000" font-family="sans-serif" font-size="14" lengthAdjust="spacing" textLength="82" x="236.5" y="526.6">Web Browser</text><rect fill="#FEFECE" filter="url(#f1ifuz688whxgh)" height="30.7999" style="stroke:#A80036;stroke-width:1.5;" width="77" x="489" y="53"/><text fill="#000000" font-family="sans-serif" font-size="14" lengthAdjust="spacing" textLength="63" x="496" y="73.9999">Dataverse</text><rect fill="#FEFECE" filter="url(#f1ifuz688whxgh)" height="30.7999" style="stroke:#A80036;stroke-width:1.5;" width="77" x="489" y="505.6001"/><text fill="#000000" font-family="sans-serif" font-size="14" lengthAdjust="spacing" textLength="63" x="496" y="526.6">Dataverse</text><polygon fill="#A80036" points="267.5,116.3999,277.5,120.3999,267.5,124.3999,271.5,120.3999" style="stroke:#A80036;stroke-width:1.0;"/><line style="stroke:#A80036;stroke-width:1.0;" x1="50.5" x2="273.5" y1="120.3999" y2="120.3999"/><text fill="#000000" font-family="sans-serif" font-size="13" lengthAdjust="spacing" textLength="177" x="57.5" y="115.7999">type the URL of Root Dataverse</text><polygon fill="#A80036" points="517.5,146,527.5,150,517.5,154,521.5,150" style="stroke:#A80036;stroke-width:1.0;"/><line style="stroke:#A80036;stroke-width:1.0;" x1="279.5" x2="523.5" y1="150" y2="150"/><text fill="#000000" font-family="sans-serif" font-size="13" lengthAdjust="spacing" textLength="191" x="286.5" y="145.4">request:Top (root Dataverse) page</text><polygon fill="#A80036" points="290.5,175.6,280.5,179.6,290.5,183.6,286.5,179.6" style="stroke:#A80036;stroke-width:1.0;"/><line style="stroke:#A80036;stroke-width:1.0;" x1="284.5" x2="528.5" y1="179.6" y2="179.6"/><text fill="#000000" font-family="sans-serif" font-size="13" lengthAdjust="spacing" textLength="107" x="296.5" y="175">response:Top page</text><polygon fill="#A80036" points="267.5,205.2,277.5,209.2,267.5,213.2,271.5,209.2" style="stroke:#A80036;stroke-width:1.0;"/><line style="stroke:#A80036;stroke-width:1.0;" x1="50.5" x2="273.5" y1="209.2" y2="209.2"/><text fill="#000000" font-family="sans-serif" font-size="13" lengthAdjust="spacing" textLength="204" x="57.5" y="204.6">click the host Dataverse from the list</text><polygon fill="#A80036" points="517.5,234.8,527.5,238.8,517.5,242.8,521.5,238.8" style="stroke:#A80036;stroke-width:1.0;"/><line style="stroke:#A80036;stroke-width:1.0;" x1="279.5" x2="523.5" y1="238.8" y2="238.8"/><text fill="#000000" font-family="sans-serif" font-size="13" lengthAdjust="spacing" textLength="151" x="286.5" y="234.2">request: the host dataverse</text><polygon fill="#A80036" points="290.5,264.4,280.5,268.4,290.5,272.4,286.5,268.4" style="stroke:#A80036;stroke-width:1.0;"/><line style="stroke:#A80036;stroke-width:1.0;" x1="284.5" x2="528.5" y1="268.4" y2="268.4"/><text fill="#000000" font-family="sans-serif" font-size="13" lengthAdjust="spacing" textLength="222" x="296.5" y="263.8">response: landing page of the dataverse</text><polygon fill="#A80036" points="267.5,294,277.5,298,267.5,302,271.5,298" style="stroke:#A80036;stroke-width:1.0;"/><line style="stroke:#A80036;stroke-width:1.0;" x1="50.5" x2="273.5" y1="298" y2="298"/><text fill="#000000" font-family="sans-serif" font-size="13" lengthAdjust="spacing" textLength="205" x="57.5" y="293.4">click "Add Data/New Dataset" option</text><polygon fill="#A80036" points="517.5,323.6,527.5,327.6,517.5,331.6,521.5,327.6" style="stroke:#A80036;stroke-width:1.0;"/><line style="stroke:#A80036;stroke-width:1.0;" x1="279.5" x2="523.5" y1="327.6" y2="327.6"/><text fill="#000000" font-family="sans-serif" font-size="13" lengthAdjust="spacing" textLength="202" x="286.5" y="323">request: New Dataset Creation page</text><polygon fill="#A80036" points="290.5,353.2001,280.5,357.2001,290.5,361.2001,286.5,357.2001" style="stroke:#A80036;stroke-width:1.0;"/><line style="stroke:#A80036;stroke-width:1.0;" x1="284.5" x2="528.5" y1="357.2001" y2="357.2001"/><text fill="#000000" font-family="sans-serif" font-size="13" lengthAdjust="spacing" textLength="166" x="296.5" y="352.6">response: Dataset creation UI</text><line style="stroke:#A80036;stroke-width:1.0;" x1="50.5" x2="92.5" y1="386.8001" y2="386.8001"/><line style="stroke:#A80036;stroke-width:1.0;" x1="92.5" x2="92.5" y1="386.8001" y2="399.8001"/><line style="stroke:#A80036;stroke-width:1.0;" x1="51.5" x2="92.5" y1="399.8001" y2="399.8001"/><polygon fill="#A80036" points="61.5,395.8001,51.5,399.8001,61.5,403.8001,57.5,399.8001" style="stroke:#A80036;stroke-width:1.0;"/><text fill="#000000" font-family="sans-serif" font-size="13" lengthAdjust="spacing" textLength="128" x="57.5" y="382.2001">prepare a Dataset Title</text><polygon fill="#A80036" points="267.5,425.4001,277.5,429.4001,267.5,433.4001,271.5,429.4001" style="stroke:#A80036;stroke-width:1.0;"/><line style="stroke:#A80036;stroke-width:1.0;" x1="50.5" x2="273.5" y1="429.4001" y2="429.4001"/><text fill="#000000" font-family="sans-serif" font-size="13" lengthAdjust="spacing" textLength="185" x="57.5" y="424.8001">enter required data in the UI form</text><polygon fill="#A80036" points="517.5,455.0001,527.5,459.0001,517.5,463.0001,521.5,459.0001" style="stroke:#A80036;stroke-width:1.0;"/><line style="stroke:#A80036;stroke-width:1.0;" x1="279.5" x2="523.5" y1="459.0001" y2="459.0001"/><text fill="#000000" font-family="sans-serif" font-size="13" lengthAdjust="spacing" textLength="141" x="286.5" y="454.4001">request: Dataset creation</text><polygon fill="#A80036" points="290.5,484.6001,280.5,488.6001,290.5,492.6001,286.5,488.6001" style="stroke:#A80036;stroke-width:1.0;"/><line style="stroke:#A80036;stroke-width:1.0;" x1="284.5" x2="528.5" y1="488.6001" y2="488.6001"/><text fill="#000000" font-family="sans-serif" font-size="13" lengthAdjust="spacing" textLength="226" x="296.5" y="484.0001">response: OK (render success message)</text><text fill="#888888" font-family="sans-serif" font-size="10" lengthAdjust="spacing" textLength="122" x="226.5" y="603.4">Note: log-in step is excluded</text><!--MD5=[458af15befc40d47ff010c31eff43fb1]
@startuml
'title Dataverse-side Initial Setup: Create a New Dataset
actor "Data Provider" as dp
participant "Web Browser" as wb
'participant TRSA as trsa
'participant "File Storage" as fs
participant  Dataverse as dv
'participant "Notary Service" as ns

dp -> wb: type the URL of Root Dataverse
wb -> dv: request:Top (root Dataverse) page
dv -> wb: response:Top page
dp -> wb: click the host Dataverse from the list
wb -> dv: request: the host dataverse
dv -> wb: response: landing page of the dataverse
dp -> wb: click "Add Data/New Dataset" option
wb -> dv: request: New Dataset Creation page
dv -> wb: response: Dataset creation UI
dp -> dp: prepare a Dataset Title
dp -> wb: enter required data in the UI form
wb -> dv: request: Dataset creation
dv -> wb: response: OK (render success message)
footer Note: log-in step is excluded
@enduml

@startuml
actor "Data Provider" as dp
participant "Web Browser" as wb
participant  Dataverse as dv

dp -> wb: type the URL of Root Dataverse
wb -> dv: request:Top (root Dataverse) page
dv -> wb: response:Top page
dp -> wb: click the host Dataverse from the list
wb -> dv: request: the host dataverse
dv -> wb: response: landing page of the dataverse
dp -> wb: click "Add Data/New Dataset" option
wb -> dv: request: New Dataset Creation page
dv -> wb: response: Dataset creation UI
dp -> dp: prepare a Dataset Title
dp -> wb: enter required data in the UI form
wb -> dv: request: Dataset creation
dv -> wb: response: OK (render success message)
footer Note: log-in step is excluded
@enduml

PlantUML version 1.2021.4(Sun Apr 04 08:49:39 GMT 2021)
(GPL source distribution)
Java Runtime: OpenJDK Runtime Environment
JVM: OpenJDK 64-Bit Server VM
Default Encoding: UTF-8
Language: en
Country: US
--></g></svg>