<?xml version="1.0" encoding="UTF-8" standalone="no"?><svg xmlns="http://www.w3.org/2000/svg" xmlns:xlink="http://www.w3.org/1999/xlink" contentScriptType="application/ecmascript" contentStyleType="text/css" height="584px" preserveAspectRatio="none" style="width:469px;height:584px;" version="1.1" viewBox="0 0 469 584" width="469px" zoomAndPan="magnify"><defs><filter height="300%" id="f12h6yhxtgl0zk" width="300%" x="-1" y="-1"><feGaussianBlur result="blurOut" stdDeviation="2.0"/><feColorMatrix in="blurOut" result="blurOut2" type="matrix" values="0 0 0 0 0 0 0 0 0 0 0 0 0 0 0 0 0 0 .4 0"/><feOffset dx="4.0" dy="4.0" in="blurOut2" result="blurOut3"/><feBlend in="SourceGraphic" in2="blurOut3" mode="normal"/></filter></defs><g><text fill="#000000" font-family="sans-serif" font-size="18" lengthAdjust="spacing" textLength="313" x="75.5" y="29.9999">Dataverse-side setup: Get a API Token</text><line style="stroke:#A80036;stroke-width:1.0;stroke-dasharray:5.0,5.0;" x1="50" x2="50" y1="124.3998" y2="499.6"/><line style="stroke:#A80036;stroke-width:1.0;stroke-dasharray:5.0,5.0;" x1="248.5" x2="248.5" y1="124.3998" y2="499.6"/><line style="stroke:#A80036;stroke-width:1.0;stroke-dasharray:5.0,5.0;" x1="418" x2="418" y1="124.3998" y2="499.6"/><text fill="#000000" font-family="sans-serif" font-size="14" lengthAdjust="spacing" textLength="85" x="5" y="121.5998">Data Provider</text><ellipse cx="50.5" cy="50.5999" fill="#FEFECE" filter="url(#f12h6yhxtgl0zk)" rx="8" ry="8" style="stroke:#A80036;stroke-width:2.0;"/><path d="M50.5,58.5999 L50.5,85.5999 M37.5,66.5999 L63.5,66.5999 M50.5,85.5999 L37.5,100.5999 M50.5,85.5999 L63.5,100.5999 " fill="none" filter="url(#f12h6yhxtgl0zk)" style="stroke:#A80036;stroke-width:2.0;"/><text fill="#000000" font-family="sans-serif" font-size="14" lengthAdjust="spacing" textLength="85" x="5" y="512.5999">Data Provider</text><ellipse cx="50.5" cy="525.3999" fill="#FEFECE" filter="url(#f12h6yhxtgl0zk)" rx="8" ry="8" style="stroke:#A80036;stroke-width:2.0;"/><path d="M50.5,533.3999 L50.5,560.3999 M37.5,541.3999 L63.5,541.3999 M50.5,560.3999 L37.5,575.3999 M50.5,560.3999 L63.5,575.3999 " fill="none" filter="url(#f12h6yhxtgl0zk)" style="stroke:#A80036;stroke-width:2.0;"/><rect fill="#FEFECE" filter="url(#f12h6yhxtgl0zk)" height="30.7999" style="stroke:#A80036;stroke-width:1.5;" width="96" x="198.5" y="88.5999"/><text fill="#000000" font-family="sans-serif" font-size="14" lengthAdjust="spacing" textLength="82" x="205.5" y="109.5998">Web Browser</text><rect fill="#FEFECE" filter="url(#f12h6yhxtgl0zk)" height="30.7999" style="stroke:#A80036;stroke-width:1.5;" width="96" x="198.5" y="498.6"/><text fill="#000000" font-family="sans-serif" font-size="14" lengthAdjust="spacing" textLength="82" x="205.5" y="519.5999">Web Browser</text><rect fill="#FEFECE" filter="url(#f12h6yhxtgl0zk)" height="30.7999" style="stroke:#A80036;stroke-width:1.5;" width="77" x="378" y="88.5999"/><text fill="#000000" font-family="sans-serif" font-size="14" lengthAdjust="spacing" textLength="63" x="385" y="109.5998">Dataverse</text><rect fill="#FEFECE" filter="url(#f12h6yhxtgl0zk)" height="30.7999" style="stroke:#A80036;stroke-width:1.5;" width="77" x="378" y="498.6"/><text fill="#000000" font-family="sans-serif" font-size="14" lengthAdjust="spacing" textLength="63" x="385" y="519.5999">Dataverse</text><polygon fill="#A80036" points="236.5,151.9998,246.5,155.9998,236.5,159.9998,240.5,155.9998" style="stroke:#A80036;stroke-width:1.0;"/><line style="stroke:#A80036;stroke-width:1.0;" x1="50.5" x2="242.5" y1="155.9998" y2="155.9998"/><text fill="#000000" font-family="sans-serif" font-size="13" lengthAdjust="spacing" textLength="147" x="57.5" y="151.3998">type the URL of Dataverse</text><polygon fill="#A80036" points="406.5,181.5998,416.5,185.5998,406.5,189.5998,410.5,185.5998" style="stroke:#A80036;stroke-width:1.0;"/><line style="stroke:#A80036;stroke-width:1.0;" x1="248.5" x2="412.5" y1="185.5998" y2="185.5998"/><text fill="#000000" font-family="sans-serif" font-size="13" lengthAdjust="spacing" textLength="108" x="255.5" y="180.9998">request:home page</text><polygon fill="#A80036" points="259.5,211.1998,249.5,215.1998,259.5,219.1998,255.5,215.1998" style="stroke:#A80036;stroke-width:1.0;"/><line style="stroke:#A80036;stroke-width:1.0;" x1="253.5" x2="417.5" y1="215.1998" y2="215.1998"/><text fill="#000000" font-family="sans-serif" font-size="13" lengthAdjust="spacing" textLength="117" x="265.5" y="210.5998">response:home page</text><polygon fill="#A80036" points="236.5,240.7998,246.5,244.7998,236.5,248.7998,240.5,244.7998" style="stroke:#A80036;stroke-width:1.0;"/><line style="stroke:#A80036;stroke-width:1.0;" x1="50.5" x2="242.5" y1="244.7998" y2="244.7998"/><text fill="#000000" font-family="sans-serif" font-size="13" lengthAdjust="spacing" textLength="111" x="57.5" y="240.1998">click the sign-in link</text><polygon fill="#A80036" points="406.5,270.3999,416.5,274.3999,406.5,278.3999,410.5,274.3999" style="stroke:#A80036;stroke-width:1.0;"/><line style="stroke:#A80036;stroke-width:1.0;" x1="248.5" x2="412.5" y1="274.3999" y2="274.3999"/><text fill="#000000" font-family="sans-serif" font-size="13" lengthAdjust="spacing" textLength="116" x="255.5" y="269.7999">request: sign-in page</text><polygon fill="#A80036" points="259.5,299.9999,249.5,303.9999,259.5,307.9999,255.5,303.9999" style="stroke:#A80036;stroke-width:1.0;"/><line style="stroke:#A80036;stroke-width:1.0;" x1="253.5" x2="417.5" y1="303.9999" y2="303.9999"/><text fill="#000000" font-family="sans-serif" font-size="13" lengthAdjust="spacing" textLength="125" x="265.5" y="299.3999">response: sign-in page</text><polygon fill="#A80036" points="236.5,329.5999,246.5,333.5999,236.5,337.5999,240.5,333.5999" style="stroke:#A80036;stroke-width:1.0;"/><line style="stroke:#A80036;stroke-width:1.0;" x1="50.5" x2="242.5" y1="333.5999" y2="333.5999"/><text fill="#000000" font-family="sans-serif" font-size="13" lengthAdjust="spacing" textLength="106" x="57.5" y="328.9999">enter required data</text><polygon fill="#A80036" points="406.5,359.1999,416.5,363.1999,406.5,367.1999,410.5,363.1999" style="stroke:#A80036;stroke-width:1.0;"/><line style="stroke:#A80036;stroke-width:1.0;" x1="248.5" x2="412.5" y1="363.1999" y2="363.1999"/><text fill="#000000" font-family="sans-serif" font-size="13" lengthAdjust="spacing" textLength="138" x="255.5" y="358.5999">request: register the user</text><polygon fill="#A80036" points="259.5,388.7999,249.5,392.7999,259.5,396.7999,255.5,392.7999" style="stroke:#A80036;stroke-width:1.0;"/><line style="stroke:#A80036;stroke-width:1.0;" x1="253.5" x2="417.5" y1="392.7999" y2="392.7999"/><text fill="#000000" font-family="sans-serif" font-size="13" lengthAdjust="spacing" textLength="143" x="265.5" y="388.1999">response: OK (registered)</text><polygon fill="#A80036" points="236.5,418.3999,246.5,422.3999,236.5,426.3999,240.5,422.3999" style="stroke:#A80036;stroke-width:1.0;"/><line style="stroke:#A80036;stroke-width:1.0;" x1="50.5" x2="242.5" y1="422.3999" y2="422.3999"/><text fill="#000000" font-family="sans-serif" font-size="13" lengthAdjust="spacing" textLength="174" x="57.5" y="417.7999">click username/API Token link</text><polygon fill="#A80036" points="406.5,447.9999,416.5,451.9999,406.5,455.9999,410.5,451.9999" style="stroke:#A80036;stroke-width:1.0;"/><line style="stroke:#A80036;stroke-width:1.0;" x1="248.5" x2="412.5" y1="451.9999" y2="451.9999"/><text fill="#000000" font-family="sans-serif" font-size="13" lengthAdjust="spacing" textLength="137" x="255.5" y="447.3999">request: API-token page</text><polygon fill="#A80036" points="259.5,477.6,249.5,481.6,259.5,485.6,255.5,481.6" style="stroke:#A80036;stroke-width:1.0;"/><line style="stroke:#A80036;stroke-width:1.0;" x1="253.5" x2="417.5" y1="481.6" y2="481.6"/><text fill="#000000" font-family="sans-serif" font-size="13" lengthAdjust="spacing" textLength="146" x="265.5" y="477">response: API-token page</text><!--MD5=[bc7f3a9578f97ee6eb64677ad4cf6151]
@startuml
title Dataverse-side setup: Get a API Token
actor "Data Provider" as dp
participant "Web Browser" as wb
'participant TRSA as sa
'participant "File Storage" as fs
participant  Dataverse as dv
'participant "Notary Service" as ns

dp -> wb: type the URL of Dataverse
wb -> dv: request:home page
dv -> wb: response:home page
dp -> wb: click the sign-in link
wb -> dv: request: sign-in page
dv -> wb: response: sign-in page
dp -> wb: enter required data
wb -> dv: request: register the user
dv -> wb: response: OK (registered)
dp -> wb: click username/API Token link
wb -> dv: request: API-token page
dv -> wb: response: API-token page
@enduml

@startuml
title Dataverse-side setup: Get a API Token
actor "Data Provider" as dp
participant "Web Browser" as wb
participant  Dataverse as dv

dp -> wb: type the URL of Dataverse
wb -> dv: request:home page
dv -> wb: response:home page
dp -> wb: click the sign-in link
wb -> dv: request: sign-in page
dv -> wb: response: sign-in page
dp -> wb: enter required data
wb -> dv: request: register the user
dv -> wb: response: OK (registered)
dp -> wb: click username/API Token link
wb -> dv: request: API-token page
dv -> wb: response: API-token page
@enduml

PlantUML version 1.2021.4(Sun Apr 04 08:49:39 GMT 2021)
(GPL source distribution)
Java Runtime: OpenJDK Runtime Environment
JVM: OpenJDK 64-Bit Server VM
Default Encoding: UTF-8
Language: en
Country: US
--></g></svg>