<?xml version="1.0" encoding="UTF-8" standalone="no"?><svg xmlns="http://www.w3.org/2000/svg" xmlns:xlink="http://www.w3.org/1999/xlink" contentScriptType="application/ecmascript" contentStyleType="text/css" height="749px" preserveAspectRatio="none" style="width:859px;height:749px;" version="1.1" viewBox="0 0 859 749" width="859px" zoomAndPan="magnify"><defs><filter height="300%" id="f1uyxpavigy1do" width="300%" x="-1" y="-1"><feGaussianBlur result="blurOut" stdDeviation="2.0"/><feColorMatrix in="blurOut" result="blurOut2" type="matrix" values="0 0 0 0 0 0 0 0 0 0 0 0 0 0 0 0 0 0 .4 0"/><feOffset dx="4.0" dy="4.0" in="blurOut2" result="blurOut3"/><feBlend in="SourceGraphic" in2="blurOut3" mode="normal"/></filter></defs><g><text fill="#000000" font-family="sans-serif" font-size="18" lengthAdjust="spacing" textLength="551" x="152.25" y="29.9999">Downloading a remote Datafile with/without-Notary-service-restriction</text><rect fill="#FFFFFF" filter="url(#f1uyxpavigy1do)" height="253.2" style="stroke:#000000;stroke-width:2.0;" width="835.5" x="10" y="394.3999"/><rect fill="#FFFFFF" height="133.6" style="stroke:none;stroke-width:1.0;" width="835.5" x="10" y="514"/><line style="stroke:#A80036;stroke-width:1.0;stroke-dasharray:5.0,5.0;" x1="58" x2="58" y1="124.3998" y2="664.6"/><line style="stroke:#A80036;stroke-width:1.0;stroke-dasharray:5.0,5.0;" x1="236.5" x2="236.5" y1="124.3998" y2="664.6"/><line style="stroke:#A80036;stroke-width:1.0;stroke-dasharray:5.0,5.0;" x1="431" x2="431" y1="124.3998" y2="664.6"/><line style="stroke:#A80036;stroke-width:1.0;stroke-dasharray:5.0,5.0;" x1="527" x2="527" y1="124.3998" y2="664.6"/><line style="stroke:#A80036;stroke-width:1.0;stroke-dasharray:5.0,5.0;" x1="693.5" x2="693.5" y1="124.3998" y2="664.6"/><text fill="#000000" font-family="sans-serif" font-size="14" lengthAdjust="spacing" textLength="71" x="20" y="121.5998">Researcher</text><ellipse cx="58.5" cy="50.5999" fill="#FEFECE" filter="url(#f1uyxpavigy1do)" rx="8" ry="8" style="stroke:#A80036;stroke-width:2.0;"/><path d="M58.5,58.5999 L58.5,85.5999 M45.5,66.5999 L71.5,66.5999 M58.5,85.5999 L45.5,100.5999 M58.5,85.5999 L71.5,100.5999 " fill="none" filter="url(#f1uyxpavigy1do)" style="stroke:#A80036;stroke-width:2.0;"/><text fill="#000000" font-family="sans-serif" font-size="14" lengthAdjust="spacing" textLength="71" x="20" y="677.5999">Researcher</text><ellipse cx="58.5" cy="690.3999" fill="#FEFECE" filter="url(#f1uyxpavigy1do)" rx="8" ry="8" style="stroke:#A80036;stroke-width:2.0;"/><path d="M58.5,698.3999 L58.5,725.3999 M45.5,706.3999 L71.5,706.3999 M58.5,725.3999 L45.5,740.3999 M58.5,725.3999 L71.5,740.3999 " fill="none" filter="url(#f1uyxpavigy1do)" style="stroke:#A80036;stroke-width:2.0;"/><rect fill="#FEFECE" filter="url(#f1uyxpavigy1do)" height="30.7999" style="stroke:#A80036;stroke-width:1.5;" width="96" x="186.5" y="88.5999"/><text fill="#000000" font-family="sans-serif" font-size="14" lengthAdjust="spacing" textLength="82" x="193.5" y="109.5998">Web Browser</text><rect fill="#FEFECE" filter="url(#f1uyxpavigy1do)" height="30.7999" style="stroke:#A80036;stroke-width:1.5;" width="96" x="186.5" y="663.6"/><text fill="#000000" font-family="sans-serif" font-size="14" lengthAdjust="spacing" textLength="82" x="193.5" y="684.5999">Web Browser</text><rect fill="#FEFECE" filter="url(#f1uyxpavigy1do)" height="30.7999" style="stroke:#A80036;stroke-width:1.5;" width="87" x="386" y="88.5999"/><text fill="#000000" font-family="sans-serif" font-size="14" lengthAdjust="spacing" textLength="73" x="393" y="109.5998">File Storage</text><rect fill="#FEFECE" filter="url(#f1uyxpavigy1do)" height="30.7999" style="stroke:#A80036;stroke-width:1.5;" width="87" x="386" y="663.6"/><text fill="#000000" font-family="sans-serif" font-size="14" lengthAdjust="spacing" textLength="73" x="393" y="684.5999">File Storage</text><rect fill="#FEFECE" filter="url(#f1uyxpavigy1do)" height="30.7999" style="stroke:#A80036;stroke-width:1.5;" width="77" x="487" y="88.5999"/><text fill="#000000" font-family="sans-serif" font-size="14" lengthAdjust="spacing" textLength="63" x="494" y="109.5998">Dataverse</text><rect fill="#FEFECE" filter="url(#f1uyxpavigy1do)" height="30.7999" style="stroke:#A80036;stroke-width:1.5;" width="77" x="487" y="663.6"/><text fill="#000000" font-family="sans-serif" font-size="14" lengthAdjust="spacing" textLength="63" x="494" y="684.5999">Dataverse</text><rect fill="#FEFECE" filter="url(#f1uyxpavigy1do)" height="30.7999" style="stroke:#A80036;stroke-width:1.5;" width="104" x="639.5" y="88.5999"/><text fill="#000000" font-family="sans-serif" font-size="14" lengthAdjust="spacing" textLength="90" x="646.5" y="109.5998">Notary Service</text><rect fill="#FEFECE" filter="url(#f1uyxpavigy1do)" height="30.7999" style="stroke:#A80036;stroke-width:1.5;" width="104" x="639.5" y="663.6"/><text fill="#000000" font-family="sans-serif" font-size="14" lengthAdjust="spacing" textLength="90" x="646.5" y="684.5999">Notary Service</text><polygon fill="#A80036" points="224.5,167.5998,234.5,171.5998,224.5,175.5998,228.5,171.5998" style="stroke:#A80036;stroke-width:1.0;"/><line style="stroke:#A80036;stroke-width:1.0;" x1="58.5" x2="230.5" y1="171.5998" y2="171.5998"/><text fill="#000000" font-family="sans-serif" font-size="13" lengthAdjust="spacing" textLength="117" x="65.5" y="151.3998">type the landing URL</text><text fill="#000000" font-family="sans-serif" font-size="13" lengthAdjust="spacing" textLength="68" x="68.5" y="166.9998">of a Dataset</text><polygon fill="#A80036" points="515.5,197.1998,525.5,201.1998,515.5,205.1998,519.5,201.1998" style="stroke:#A80036;stroke-width:1.0;"/><line style="stroke:#A80036;stroke-width:1.0;" x1="236.5" x2="521.5" y1="201.1998" y2="201.1998"/><text fill="#000000" font-family="sans-serif" font-size="13" lengthAdjust="spacing" textLength="202" x="243.5" y="196.5998">request: landing page of the Dataset</text><polygon fill="#A80036" points="247.5,226.7998,237.5,230.7998,247.5,234.7998,243.5,230.7998" style="stroke:#A80036;stroke-width:1.0;"/><line style="stroke:#A80036;stroke-width:1.0;" x1="241.5" x2="526.5" y1="230.7998" y2="230.7998"/><text fill="#000000" font-family="sans-serif" font-size="13" lengthAdjust="spacing" textLength="259" x="253.5" y="226.1998">response: Landing page with a list of DataFiles</text><polygon fill="#A80036" points="224.5,271.9999,234.5,275.9999,224.5,279.9999,228.5,275.9999" style="stroke:#A80036;stroke-width:1.0;"/><line style="stroke:#A80036;stroke-width:1.0;" x1="58.5" x2="230.5" y1="275.9999" y2="275.9999"/><text fill="#000000" font-family="sans-serif" font-size="13" lengthAdjust="spacing" textLength="154" x="65.5" y="255.7999">click the "Download" button</text><text fill="#000000" font-family="sans-serif" font-size="13" lengthAdjust="spacing" textLength="72" x="68.5" y="271.3999">of a DataFile</text><polygon fill="#A80036" points="515.5,301.5999,525.5,305.5999,515.5,309.5999,519.5,305.5999" style="stroke:#A80036;stroke-width:1.0;"/><line style="stroke:#A80036;stroke-width:1.0;" x1="236.5" x2="521.5" y1="305.5999" y2="305.5999"/><text fill="#000000" font-family="sans-serif" font-size="13" lengthAdjust="spacing" textLength="193" x="243.5" y="300.9999">request: Downloading the DataFile</text><line style="stroke:#A80036;stroke-width:1.0;" x1="527.5" x2="569.5" y1="366.3999" y2="366.3999"/><line style="stroke:#A80036;stroke-width:1.0;" x1="569.5" x2="569.5" y1="366.3999" y2="379.3999"/><line style="stroke:#A80036;stroke-width:1.0;" x1="528.5" x2="569.5" y1="379.3999" y2="379.3999"/><polygon fill="#A80036" points="538.5,375.3999,528.5,379.3999,538.5,383.3999,534.5,379.3999" style="stroke:#A80036;stroke-width:1.0;"/><text fill="#000000" font-family="sans-serif" font-size="13" lengthAdjust="spacing" textLength="124" x="534.5" y="330.5999">check the file location</text><text fill="#000000" font-family="sans-serif" font-size="13" lengthAdjust="spacing" textLength="59" x="537.5" y="346.1999">in terms of</text><text fill="#000000" font-family="sans-serif" font-size="13" lengthAdjust="spacing" textLength="78" x="537.5" y="361.7999">notary service</text><path d="M10,394.3999 L70,394.3999 L70,401.3999 L60,411.3999 L10,411.3999 L10,394.3999 " fill="#EEEEEE" style="stroke:#000000;stroke-width:1.0;"/><rect fill="none" height="253.2" style="stroke:#000000;stroke-width:2.0;" width="835.5" x="10" y="394.3999"/><text fill="#000000" font-family="sans-serif" font-size="13" font-weight="bold" lengthAdjust="spacing" textLength="15" x="25" y="408.3999">alt</text><text fill="#000000" font-family="sans-serif" font-size="11" font-weight="bold" lengthAdjust="spacing" textLength="110" x="85" y="407.3998">[with Notary Service]</text><polygon fill="#A80036" points="681.5,481.4,691.5,485.4,681.5,489.4,685.5,485.4" style="stroke:#A80036;stroke-width:1.0;"/><line style="stroke:#A80036;stroke-width:1.0;" x1="527.5" x2="687.5" y1="485.4" y2="485.4"/><text fill="#000000" font-family="sans-serif" font-size="13" lengthAdjust="spacing" textLength="139" x="534.5" y="449.6">forward the pre-specified</text><text fill="#000000" font-family="sans-serif" font-size="13" lengthAdjust="spacing" textLength="84" x="534.5" y="465.2">Notary-Service</text><text fill="#000000" font-family="sans-serif" font-size="13" lengthAdjust="spacing" textLength="70" x="534.5" y="480.8">project page</text><path d="M698,416.9999 L698,504.9999 L826,504.9999 L826,426.9999 L816,416.9999 L698,416.9999 " fill="#FBFB77" filter="url(#f1uyxpavigy1do)" style="stroke:#A80036;stroke-width:1.0;"/><path d="M816,416.9999 L816,426.9999 L826,426.9999 L816,416.9999 " fill="#FBFB77" style="stroke:#A80036;stroke-width:1.0;"/><text fill="#000000" font-family="sans-serif" font-size="13" lengthAdjust="spacing" textLength="95" x="704" y="435">Notary Service is</text><text fill="#000000" font-family="sans-serif" font-size="13" lengthAdjust="spacing" textLength="107" x="704" y="450.6">expected to handle</text><text fill="#000000" font-family="sans-serif" font-size="13" lengthAdjust="spacing" textLength="67" x="704" y="466.2">the ultimate</text><text fill="#000000" font-family="sans-serif" font-size="13" lengthAdjust="spacing" textLength="92" x="704" y="481.8">file-downloading</text><text fill="#000000" font-family="sans-serif" font-size="13" lengthAdjust="spacing" textLength="35" x="704" y="497.4">action</text><line style="stroke:#000000;stroke-width:1.0;stroke-dasharray:2.0,2.0;" x1="10" x2="845.5" y1="515" y2="515"/><text fill="#000000" font-family="sans-serif" font-size="11" font-weight="bold" lengthAdjust="spacing" textLength="131" x="15" y="525.9999">[withoug Notary Service]</text><polygon fill="#A80036" points="247.5,546.7999,237.5,550.7999,247.5,554.7999,243.5,550.7999" style="stroke:#A80036;stroke-width:1.0;"/><line style="stroke:#A80036;stroke-width:1.0;" x1="241.5" x2="526.5" y1="550.7999" y2="550.7999"/><text fill="#000000" font-family="sans-serif" font-size="13" lengthAdjust="spacing" textLength="81" x="253.5" y="546.1999">redirect action</text><polygon fill="#A80036" points="419.5,576.3999,429.5,580.3999,419.5,584.3999,423.5,580.3999" style="stroke:#A80036;stroke-width:1.0;"/><line style="stroke:#A80036;stroke-width:1.0;" x1="236.5" x2="425.5" y1="580.3999" y2="580.3999"/><text fill="#000000" font-family="sans-serif" font-size="13" lengthAdjust="spacing" textLength="116" x="243.5" y="575.7999">downloading request</text><polygon fill="#A80036" points="247.5,606,237.5,610,247.5,614,243.5,610" style="stroke:#A80036;stroke-width:1.0;"/><line style="stroke:#A80036;stroke-width:1.0;" x1="241.5" x2="430.5" y1="610" y2="610"/><text fill="#000000" font-family="sans-serif" font-size="13" lengthAdjust="spacing" textLength="171" x="253.5" y="605.4">response: prompt downloading</text><polygon fill="#A80036" points="224.5,635.6,234.5,639.6,224.5,643.6,228.5,639.6" style="stroke:#A80036;stroke-width:1.0;"/><line style="stroke:#A80036;stroke-width:1.0;" x1="58.5" x2="230.5" y1="639.6" y2="639.6"/><text fill="#000000" font-family="sans-serif" font-size="13" lengthAdjust="spacing" textLength="67" x="65.5" y="635">click "Save"</text><!--MD5=[b6d30077a1cfbdffc4cbbfac5b2a7e9c]
@startuml
title Downloading a remote Datafile with/without-Notary-service-restriction
actor Researcher as rs
'actor "Data Provider" as dp
participant "Web Browser" as wb
'participant TRSA as sa
participant "File Storage" as fs
participant  Dataverse as dv
participant "Notary Service" as ns
rs -> wb: type the landing URL\n of a Dataset
wb -> dv: request: landing page of the Dataset
dv -> wb: response: Landing page with a list of DataFiles
rs -> wb: click the "Download" button\n of a DataFile
wb -> dv: request: Downloading the DataFile
dv -> dv: check the file location\n in terms of\n notary service
alt with Notary Service
dv -> ns: forward the pre-specified \nNotary-Service \nproject page
note right
Notary Service is
expected to handle
the ultimate
file-downloading
action
end note
else withoug Notary Service
dv -> wb: redirect action
wb -> fs: downloading request
fs -> wb: response: prompt downloading
rs -> wb: click "Save"
end
@enduml

@startuml
title Downloading a remote Datafile with/without-Notary-service-restriction
actor Researcher as rs
participant "Web Browser" as wb
participant "File Storage" as fs
participant  Dataverse as dv
participant "Notary Service" as ns
rs -> wb: type the landing URL\n of a Dataset
wb -> dv: request: landing page of the Dataset
dv -> wb: response: Landing page with a list of DataFiles
rs -> wb: click the "Download" button\n of a DataFile
wb -> dv: request: Downloading the DataFile
dv -> dv: check the file location\n in terms of\n notary service
alt with Notary Service
dv -> ns: forward the pre-specified \nNotary-Service \nproject page
note right
Notary Service is
expected to handle
the ultimate
file-downloading
action
end note
else withoug Notary Service
dv -> wb: redirect action
wb -> fs: downloading request
fs -> wb: response: prompt downloading
rs -> wb: click "Save"
end
@enduml

PlantUML version 1.2021.4(Sun Apr 04 08:49:39 GMT 2021)
(GPL source distribution)
Java Runtime: OpenJDK Runtime Environment
JVM: OpenJDK 64-Bit Server VM
Default Encoding: UTF-8
Language: en
Country: US
--></g></svg>