<?xml version="1.0" encoding="UTF-8" standalone="no"?><svg xmlns="http://www.w3.org/2000/svg" xmlns:xlink="http://www.w3.org/1999/xlink" contentScriptType="application/ecmascript" contentStyleType="text/css" height="1415px" preserveAspectRatio="none" style="width:1040px;height:1415px;" version="1.1" viewBox="0 0 1040 1415" width="1040px" zoomAndPan="magnify"><defs><filter height="300%" id="ftrh1soebcbal" width="300%" x="-1" y="-1"><feGaussianBlur result="blurOut" stdDeviation="2.0"/><feColorMatrix in="blurOut" result="blurOut2" type="matrix" values="0 0 0 0 0 0 0 0 0 0 0 0 0 0 0 0 0 0 .4 0"/><feOffset dx="4.0" dy="4.0" in="blurOut2" result="blurOut3"/><feBlend in="SourceGraphic" in2="blurOut3" mode="normal"/></filter></defs><g><text fill="#000000" font-family="sans-serif" font-size="18" lengthAdjust="spacing" textLength="340" x="347.5" y="29.9999">Uploading Metadata to an Existing Dataset</text><line style="stroke:#A80036;stroke-width:1.0;stroke-dasharray:5.0,5.0;" x1="50" x2="50" y1="124.3998" y2="1330.2004"/><line style="stroke:#A80036;stroke-width:1.0;stroke-dasharray:5.0,5.0;" x1="377.5" x2="377.5" y1="124.3998" y2="1330.2004"/><line style="stroke:#A80036;stroke-width:1.0;stroke-dasharray:5.0,5.0;" x1="671" x2="671" y1="124.3998" y2="1330.2004"/><line style="stroke:#A80036;stroke-width:1.0;stroke-dasharray:5.0,5.0;" x1="989" x2="989" y1="124.3998" y2="1330.2004"/><text fill="#000000" font-family="sans-serif" font-size="14" lengthAdjust="spacing" textLength="85" x="5" y="121.5998">Data Provider</text><ellipse cx="50.5" cy="50.5999" fill="#FEFECE" filter="url(#ftrh1soebcbal)" rx="8" ry="8" style="stroke:#A80036;stroke-width:2.0;"/><path d="M50.5,58.5999 L50.5,85.5999 M37.5,66.5999 L63.5,66.5999 M50.5,85.5999 L37.5,100.5999 M50.5,85.5999 L63.5,100.5999 " fill="none" filter="url(#ftrh1soebcbal)" style="stroke:#A80036;stroke-width:2.0;"/><text fill="#000000" font-family="sans-serif" font-size="14" lengthAdjust="spacing" textLength="85" x="5" y="1343.2003">Data Provider</text><ellipse cx="50.5" cy="1356.0003" fill="#FEFECE" filter="url(#ftrh1soebcbal)" rx="8" ry="8" style="stroke:#A80036;stroke-width:2.0;"/><path d="M50.5,1364.0003 L50.5,1391.0003 M37.5,1372.0003 L63.5,1372.0003 M50.5,1391.0003 L37.5,1406.0003 M50.5,1391.0003 L63.5,1406.0003 " fill="none" filter="url(#ftrh1soebcbal)" style="stroke:#A80036;stroke-width:2.0;"/><rect fill="#FEFECE" filter="url(#ftrh1soebcbal)" height="30.7999" style="stroke:#A80036;stroke-width:1.5;" width="96" x="327.5" y="88.5999"/><text fill="#000000" font-family="sans-serif" font-size="14" lengthAdjust="spacing" textLength="82" x="334.5" y="109.5998">Web Browser</text><rect fill="#FEFECE" filter="url(#ftrh1soebcbal)" height="30.7999" style="stroke:#A80036;stroke-width:1.5;" width="96" x="327.5" y="1329.2004"/><text fill="#000000" font-family="sans-serif" font-size="14" lengthAdjust="spacing" textLength="82" x="334.5" y="1350.2003">Web Browser</text><rect fill="#FEFECE" filter="url(#ftrh1soebcbal)" height="30.7999" style="stroke:#A80036;stroke-width:1.5;" width="51" x="644" y="88.5999"/><text fill="#000000" font-family="sans-serif" font-size="14" lengthAdjust="spacing" textLength="37" x="651" y="109.5998">TRSA</text><rect fill="#FEFECE" filter="url(#ftrh1soebcbal)" height="30.7999" style="stroke:#A80036;stroke-width:1.5;" width="51" x="644" y="1329.2004"/><text fill="#000000" font-family="sans-serif" font-size="14" lengthAdjust="spacing" textLength="37" x="651" y="1350.2003">TRSA</text><rect fill="#FEFECE" filter="url(#ftrh1soebcbal)" height="30.7999" style="stroke:#A80036;stroke-width:1.5;" width="77" x="949" y="88.5999"/><text fill="#000000" font-family="sans-serif" font-size="14" lengthAdjust="spacing" textLength="63" x="956" y="109.5998">Dataverse</text><rect fill="#FEFECE" filter="url(#ftrh1soebcbal)" height="30.7999" style="stroke:#A80036;stroke-width:1.5;" width="77" x="949" y="1329.2004"/><text fill="#000000" font-family="sans-serif" font-size="14" lengthAdjust="spacing" textLength="63" x="956" y="1350.2003">Dataverse</text><polygon fill="#A80036" points="365.5,151.9998,375.5,155.9998,365.5,159.9998,369.5,155.9998" style="stroke:#A80036;stroke-width:1.0;"/><line style="stroke:#A80036;stroke-width:1.0;" x1="50.5" x2="371.5" y1="155.9998" y2="155.9998"/><text fill="#000000" font-family="sans-serif" font-size="13" lengthAdjust="spacing" textLength="135" x="57.5" y="151.3998">type the url of the TRSA</text><polygon fill="#A80036" points="659.5,181.5998,669.5,185.5998,659.5,189.5998,663.5,185.5998" style="stroke:#A80036;stroke-width:1.0;"/><line style="stroke:#A80036;stroke-width:1.0;" x1="377.5" x2="665.5" y1="185.5998" y2="185.5998"/><text fill="#000000" font-family="sans-serif" font-size="13" lengthAdjust="spacing" textLength="147" x="384.5" y="180.9998">request: Top (TRSA) page</text><polygon fill="#A80036" points="388.5,211.1998,378.5,215.1998,388.5,219.1998,384.5,215.1998" style="stroke:#A80036;stroke-width:1.0;"/><line style="stroke:#A80036;stroke-width:1.0;" x1="382.5" x2="670.5" y1="215.1998" y2="215.1998"/><text fill="#000000" font-family="sans-serif" font-size="13" lengthAdjust="spacing" textLength="110" x="394.5" y="210.5998">response: Top page</text><polygon fill="#A80036" points="365.5,303.1999,375.5,307.1999,365.5,311.1999,369.5,307.1999" style="stroke:#A80036;stroke-width:1.0;"/><line style="stroke:#A80036;stroke-width:1.0;" x1="50.5" x2="371.5" y1="307.1999" y2="307.1999"/><text fill="#000000" font-family="sans-serif" font-size="13" lengthAdjust="spacing" textLength="27" x="57.5" y="240.1998">click</text><text fill="#000000" font-family="sans-serif" font-size="13" lengthAdjust="spacing" textLength="151" x="57.5" y="255.7999">"Upload file metadata to ..."</text><text fill="#000000" font-family="sans-serif" font-size="13" lengthAdjust="spacing" textLength="36" x="60.5" y="271.3999">button</text><text fill="#000000" font-family="sans-serif" font-size="13" lengthAdjust="spacing" textLength="82" x="60.5" y="286.9999">from the menu</text><text fill="#000000" font-family="sans-serif" font-size="13" lengthAdjust="spacing" textLength="93" x="57.5" y="302.5999">in the main pane</text><polygon fill="#A80036" points="659.5,332.7999,669.5,336.7999,659.5,340.7999,663.5,336.7999" style="stroke:#A80036;stroke-width:1.0;"/><line style="stroke:#A80036;stroke-width:1.0;" x1="377.5" x2="665.5" y1="336.7999" y2="336.7999"/><text fill="#000000" font-family="sans-serif" font-size="13" lengthAdjust="spacing" textLength="179" x="384.5" y="332.1999">request:  dataset-selection page</text><polygon fill="#A80036" points="388.5,362.3999,378.5,366.3999,388.5,370.3999,384.5,366.3999" style="stroke:#A80036;stroke-width:1.0;"/><line style="stroke:#A80036;stroke-width:1.0;" x1="382.5" x2="670.5" y1="366.3999" y2="366.3999"/><text fill="#000000" font-family="sans-serif" font-size="13" lengthAdjust="spacing" textLength="255" x="394.5" y="361.7999">response: "Select a destination Dataset" page</text><polygon fill="#A80036" points="365.5,391.9999,375.5,395.9999,365.5,399.9999,369.5,395.9999" style="stroke:#A80036;stroke-width:1.0;"/><line style="stroke:#A80036;stroke-width:1.0;" x1="50.5" x2="371.5" y1="395.9999" y2="395.9999"/><text fill="#000000" font-family="sans-serif" font-size="13" lengthAdjust="spacing" textLength="279" x="57.5" y="391.3999">select a row (Dataset) and click its "Select" button</text><polygon fill="#A80036" points="659.5,421.6,669.5,425.6,659.5,429.6,663.5,425.6" style="stroke:#A80036;stroke-width:1.0;"/><line style="stroke:#A80036;stroke-width:1.0;" x1="377.5" x2="665.5" y1="425.6" y2="425.6"/><text fill="#000000" font-family="sans-serif" font-size="13" lengthAdjust="spacing" textLength="134" x="384.5" y="421">request: file-ingest page</text><polygon fill="#A80036" points="388.5,451.2,378.5,455.2,388.5,459.2,384.5,455.2" style="stroke:#A80036;stroke-width:1.0;"/><line style="stroke:#A80036;stroke-width:1.0;" x1="382.5" x2="670.5" y1="455.2" y2="455.2"/><text fill="#000000" font-family="sans-serif" font-size="13" lengthAdjust="spacing" textLength="232" x="394.5" y="450.6">response: "Upload and Ingest a File" page</text><polygon fill="#A80036" points="365.5,512,375.5,516,365.5,520,369.5,516" style="stroke:#A80036;stroke-width:1.0;"/><line style="stroke:#A80036;stroke-width:1.0;" x1="50.5" x2="371.5" y1="516" y2="516"/><text fill="#000000" font-family="sans-serif" font-size="13" lengthAdjust="spacing" textLength="27" x="57.5" y="480.2">click</text><text fill="#000000" font-family="sans-serif" font-size="13" lengthAdjust="spacing" textLength="74" x="57.5" y="495.8">"+ CHOOSE"</text><text fill="#000000" font-family="sans-serif" font-size="13" lengthAdjust="spacing" textLength="36" x="60.5" y="511.4">button</text><line style="stroke:#A80036;stroke-width:1.0;" x1="377.5" x2="419.5" y1="545.6" y2="545.6"/><line style="stroke:#A80036;stroke-width:1.0;" x1="419.5" x2="419.5" y1="545.6" y2="558.6"/><line style="stroke:#A80036;stroke-width:1.0;" x1="378.5" x2="419.5" y1="558.6" y2="558.6"/><polygon fill="#A80036" points="388.5,554.6,378.5,558.6,388.5,562.6,384.5,558.6" style="stroke:#A80036;stroke-width:1.0;"/><text fill="#000000" font-family="sans-serif" font-size="13" lengthAdjust="spacing" textLength="146" x="384.5" y="541">popup "Open File" window</text><polygon fill="#A80036" points="365.5,584.2,375.5,588.2,365.5,592.2,369.5,588.2" style="stroke:#A80036;stroke-width:1.0;"/><line style="stroke:#A80036;stroke-width:1.0;" x1="50.5" x2="371.5" y1="588.2" y2="588.2"/><text fill="#000000" font-family="sans-serif" font-size="13" lengthAdjust="spacing" textLength="146" x="57.5" y="583.6">select a file to be ingested</text><polygon fill="#A80036" points="659.5,613.8001,669.5,617.8001,659.5,621.8001,663.5,617.8001" style="stroke:#A80036;stroke-width:1.0;"/><line style="stroke:#A80036;stroke-width:1.0;" x1="377.5" x2="665.5" y1="617.8001" y2="617.8001"/><text fill="#000000" font-family="sans-serif" font-size="13" lengthAdjust="spacing" textLength="144" x="384.5" y="613.2001">request: uploading the file</text><line style="stroke:#A80036;stroke-width:1.0;" x1="671.5" x2="713.5" y1="647.4001" y2="647.4001"/><line style="stroke:#A80036;stroke-width:1.0;" x1="713.5" x2="713.5" y1="647.4001" y2="660.4001"/><line style="stroke:#A80036;stroke-width:1.0;" x1="672.5" x2="713.5" y1="660.4001" y2="660.4001"/><polygon fill="#A80036" points="682.5,656.4001,672.5,660.4001,682.5,664.4001,678.5,660.4001" style="stroke:#A80036;stroke-width:1.0;"/><text fill="#000000" font-family="sans-serif" font-size="13" lengthAdjust="spacing" textLength="167" x="678.5" y="642.8001">save the file in a tmp directory</text><polygon fill="#A80036" points="388.5,701.6001,378.5,705.6001,388.5,709.6001,384.5,705.6001" style="stroke:#A80036;stroke-width:1.0;"/><line style="stroke:#A80036;stroke-width:1.0;" x1="382.5" x2="670.5" y1="705.6001" y2="705.6001"/><text fill="#000000" font-family="sans-serif" font-size="13" lengthAdjust="spacing" textLength="270" x="394.5" y="685.4001">response: the name of the uploaded file returned</text><text fill="#000000" font-family="sans-serif" font-size="13" lengthAdjust="spacing" textLength="226" x="394.5" y="701.0001">"Ingest the uploaded file" button enabled</text><polygon fill="#A80036" points="365.5,731.2001,375.5,735.2001,365.5,739.2001,369.5,735.2001" style="stroke:#A80036;stroke-width:1.0;"/><line style="stroke:#A80036;stroke-width:1.0;" x1="50.5" x2="371.5" y1="735.2001" y2="735.2001"/><text fill="#000000" font-family="sans-serif" font-size="13" lengthAdjust="spacing" textLength="211" x="57.5" y="730.6001">click "Ingest the uploaded file " button</text><polygon fill="#A80036" points="659.5,760.8001,669.5,764.8001,659.5,768.8001,663.5,764.8001" style="stroke:#A80036;stroke-width:1.0;"/><line style="stroke:#A80036;stroke-width:1.0;" x1="377.5" x2="665.5" y1="764.8001" y2="764.8001"/><text fill="#000000" font-family="sans-serif" font-size="13" lengthAdjust="spacing" textLength="178" x="384.5" y="760.2001">request: ingest the uploaded file</text><line style="stroke:#A80036;stroke-width:1.0;" x1="671.5" x2="713.5" y1="794.4001" y2="794.4001"/><line style="stroke:#A80036;stroke-width:1.0;" x1="713.5" x2="713.5" y1="794.4001" y2="807.4001"/><line style="stroke:#A80036;stroke-width:1.0;" x1="672.5" x2="713.5" y1="807.4001" y2="807.4001"/><polygon fill="#A80036" points="682.5,803.4001,672.5,807.4001,682.5,811.4001,678.5,807.4001" style="stroke:#A80036;stroke-width:1.0;"/><text fill="#000000" font-family="sans-serif" font-size="13" lengthAdjust="spacing" textLength="304" x="678.5" y="789.8001">ingest the file and save metadata and data themselves</text><polygon fill="#A80036" points="388.5,848.6002,378.5,852.6002,388.5,856.6002,384.5,852.6002" style="stroke:#A80036;stroke-width:1.0;"/><line style="stroke:#A80036;stroke-width:1.0;" x1="382.5" x2="670.5" y1="852.6002" y2="852.6002"/><text fill="#000000" font-family="sans-serif" font-size="13" lengthAdjust="spacing" textLength="175" x="394.5" y="832.4001">response: ingest result returned</text><text fill="#000000" font-family="sans-serif" font-size="13" lengthAdjust="spacing" textLength="223" x="394.5" y="848.0002">"go to Submission page" button enabled</text><polygon fill="#A80036" points="365.5,878.2002,375.5,882.2002,365.5,886.2002,369.5,882.2002" style="stroke:#A80036;stroke-width:1.0;"/><line style="stroke:#A80036;stroke-width:1.0;" x1="50.5" x2="371.5" y1="882.2002" y2="882.2002"/><text fill="#000000" font-family="sans-serif" font-size="13" lengthAdjust="spacing" textLength="205" x="57.5" y="877.6002">click "go to Submission page" button</text><polygon fill="#A80036" points="659.5,907.8002,669.5,911.8002,659.5,915.8002,663.5,911.8002" style="stroke:#A80036;stroke-width:1.0;"/><line style="stroke:#A80036;stroke-width:1.0;" x1="377.5" x2="665.5" y1="911.8002" y2="911.8002"/><text fill="#000000" font-family="sans-serif" font-size="13" lengthAdjust="spacing" textLength="153" x="384.5" y="907.2002">request: "Submission" page</text><polygon fill="#A80036" points="388.5,937.4002,378.5,941.4002,388.5,945.4002,384.5,941.4002" style="stroke:#A80036;stroke-width:1.0;"/><line style="stroke:#A80036;stroke-width:1.0;" x1="382.5" x2="670.5" y1="941.4002" y2="941.4002"/><text fill="#000000" font-family="sans-serif" font-size="13" lengthAdjust="spacing" textLength="162" x="394.5" y="936.8002">response: "Submission" page</text><polygon fill="#A80036" points="365.5,967.0002,375.5,971.0002,365.5,975.0002,369.5,971.0002" style="stroke:#A80036;stroke-width:1.0;"/><line style="stroke:#A80036;stroke-width:1.0;" x1="50.5" x2="371.5" y1="971.0002" y2="971.0002"/><text fill="#000000" font-family="sans-serif" font-size="13" lengthAdjust="spacing" textLength="212" x="57.5" y="966.4002">set Notary-service options (default:no)</text><polygon fill="#A80036" points="365.5,996.6002,375.5,1000.6002,365.5,1004.6002,369.5,1000.6002" style="stroke:#A80036;stroke-width:1.0;"/><line style="stroke:#A80036;stroke-width:1.0;" x1="50.5" x2="371.5" y1="1000.6002" y2="1000.6002"/><text fill="#000000" font-family="sans-serif" font-size="13" lengthAdjust="spacing" textLength="183" x="57.5" y="996.0002">click the icon of column "Modify"</text><polygon fill="#A80036" points="365.5,1026.2002,375.5,1030.2002,365.5,1034.2002,369.5,1030.2002" style="stroke:#A80036;stroke-width:1.0;"/><line style="stroke:#A80036;stroke-width:1.0;" x1="50.5" x2="371.5" y1="1030.2002" y2="1030.2002"/><text fill="#000000" font-family="sans-serif" font-size="13" lengthAdjust="spacing" textLength="303" x="57.5" y="1025.6002">toggle "No" button in Column "Notary-Service" to "Yes"</text><polygon fill="#A80036" points="365.5,1055.8003,375.5,1059.8003,365.5,1063.8003,369.5,1059.8003" style="stroke:#A80036;stroke-width:1.0;"/><line style="stroke:#A80036;stroke-width:1.0;" x1="50.5" x2="371.5" y1="1059.8003" y2="1059.8003"/><text fill="#000000" font-family="sans-serif" font-size="13" lengthAdjust="spacing" textLength="222" x="57.5" y="1055.2003">click the check icon in Column "Modify"</text><polygon fill="#A80036" points="365.5,1085.4003,375.5,1089.4003,365.5,1093.4003,369.5,1089.4003" style="stroke:#A80036;stroke-width:1.0;"/><line style="stroke:#A80036;stroke-width:1.0;" x1="50.5" x2="371.5" y1="1089.4003" y2="1089.4003"/><text fill="#000000" font-family="sans-serif" font-size="13" lengthAdjust="spacing" textLength="257" x="57.5" y="1084.8003">click "save Notary Service designation" button</text><polygon fill="#A80036" points="659.5,1115.0003,669.5,1119.0003,659.5,1123.0003,663.5,1119.0003" style="stroke:#A80036;stroke-width:1.0;"/><line style="stroke:#A80036;stroke-width:1.0;" x1="377.5" x2="665.5" y1="1119.0003" y2="1119.0003"/><text fill="#000000" font-family="sans-serif" font-size="13" lengthAdjust="spacing" textLength="164" x="384.5" y="1114.4003">request: saving the NS option</text><polygon fill="#A80036" points="388.5,1144.6003,378.5,1148.6003,388.5,1152.6003,384.5,1148.6003" style="stroke:#A80036;stroke-width:1.0;"/><line style="stroke:#A80036;stroke-width:1.0;" x1="382.5" x2="670.5" y1="1148.6003" y2="1148.6003"/><text fill="#000000" font-family="sans-serif" font-size="13" lengthAdjust="spacing" textLength="203" x="394.5" y="1144.0003">response: open the submission pane</text><polygon fill="#A80036" points="365.5,1174.2003,375.5,1178.2003,365.5,1182.2003,369.5,1178.2003" style="stroke:#A80036;stroke-width:1.0;"/><line style="stroke:#A80036;stroke-width:1.0;" x1="50.5" x2="371.5" y1="1178.2003" y2="1178.2003"/><text fill="#000000" font-family="sans-serif" font-size="13" lengthAdjust="spacing" textLength="175" x="57.5" y="1173.6003">click "Submit Metadata" button</text><polygon fill="#A80036" points="659.5,1203.8003,669.5,1207.8003,659.5,1211.8003,663.5,1207.8003" style="stroke:#A80036;stroke-width:1.0;"/><line style="stroke:#A80036;stroke-width:1.0;" x1="377.5" x2="665.5" y1="1207.8003" y2="1207.8003"/><text fill="#000000" font-family="sans-serif" font-size="13" lengthAdjust="spacing" textLength="195" x="384.5" y="1203.2003">request: metadata-only submission</text><polygon fill="#A80036" points="977.5,1233.4003,987.5,1237.4003,977.5,1241.4003,981.5,1237.4003" style="stroke:#A80036;stroke-width:1.0;"/><line style="stroke:#A80036;stroke-width:1.0;" x1="671.5" x2="983.5" y1="1237.4003" y2="1237.4003"/><text fill="#000000" font-family="sans-serif" font-size="13" lengthAdjust="spacing" textLength="195" x="678.5" y="1232.8003">request: metadata-only submission</text><polygon fill="#A80036" points="682.5,1263.0004,672.5,1267.0004,682.5,1271.0004,678.5,1267.0004" style="stroke:#A80036;stroke-width:1.0;"/><line style="stroke:#A80036;stroke-width:1.0;" x1="676.5" x2="988.5" y1="1267.0004" y2="1267.0004"/><text fill="#000000" font-family="sans-serif" font-size="13" lengthAdjust="spacing" textLength="76" x="688.5" y="1262.4004">response: OK</text><polygon fill="#A80036" points="388.5,1308.2004,378.5,1312.2004,388.5,1316.2004,384.5,1312.2004" style="stroke:#A80036;stroke-width:1.0;"/><line style="stroke:#A80036;stroke-width:1.0;" x1="382.5" x2="670.5" y1="1312.2004" y2="1312.2004"/><text fill="#000000" font-family="sans-serif" font-size="13" lengthAdjust="spacing" textLength="204" x="394.5" y="1292.0004">response: "Show Payload(Metadata"</text><text fill="#000000" font-family="sans-serif" font-size="13" lengthAdjust="spacing" textLength="192" x="397.5" y="1307.6004">"Show Response" buttons enabled</text><!--MD5=[101e804a2735d9fc9f88d4a65a4d3a16]
@startuml
title Uploading Metadata to an Existing Dataset
actor "Data Provider" as dp
participant "Web Browser" as wb
participant TRSA as sa
'participant "File Storage" as fs
participant  Dataverse as dv
'participant "Notary Service" as ns
dp -> wb: type the url of the TRSA
wb -> sa: request: Top (TRSA) page
sa -> wb: response: Top page
dp -> wb: click \n"Upload file metadata to ..."\n button\n from the menu \nin the main pane
wb -> sa: request:  dataset-selection page
sa -> wb: response: "Select a destination Dataset" page
dp -> wb: select a row (Dataset) and click its "Select" button
wb -> sa: request: file-ingest page
sa -> wb: response: "Upload and Ingest a File" page
dp -> wb: click \n"+ CHOOSE"\n button
wb -> wb: popup "Open File" window
dp -> wb: select a file to be ingested
wb -> sa: request: uploading the file
sa -> sa: save the file in a tmp directory
sa -> wb: response: the name of the uploaded file returned\n"Ingest the uploaded file" button enabled
dp -> wb: click "Ingest the uploaded file " button
wb -> sa: request: ingest the uploaded file
sa -> sa: ingest the file and save metadata and data themselves
sa -> wb: response: ingest result returned\n"go to Submission page" button enabled
dp -> wb: click "go to Submission page" button
wb -> sa: request: "Submission" page
sa -> wb: response: "Submission" page
dp -> wb: set Notary-service options (default:no)
dp -> wb: click the icon of column "Modify"
dp -> wb: toggle "No" button in Column "Notary-Service" to "Yes"
dp -> wb: click the check icon in Column "Modify"
dp -> wb: click "save Notary Service designation" button
wb -> sa: request: saving the NS option
sa -> wb: response: open the submission pane
dp -> wb: click "Submit Metadata" button
wb -> sa: request: metadata-only submission
sa -> dv: request: metadata-only submission
dv -> sa: response: OK
sa -> wb: response: "Show Payload(Metadata"\n "Show Response" buttons enabled
@enduml

@startuml
title Uploading Metadata to an Existing Dataset
actor "Data Provider" as dp
participant "Web Browser" as wb
participant TRSA as sa
participant  Dataverse as dv
dp -> wb: type the url of the TRSA
wb -> sa: request: Top (TRSA) page
sa -> wb: response: Top page
dp -> wb: click \n"Upload file metadata to ..."\n button\n from the menu \nin the main pane
wb -> sa: request:  dataset-selection page
sa -> wb: response: "Select a destination Dataset" page
dp -> wb: select a row (Dataset) and click its "Select" button
wb -> sa: request: file-ingest page
sa -> wb: response: "Upload and Ingest a File" page
dp -> wb: click \n"+ CHOOSE"\n button
wb -> wb: popup "Open File" window
dp -> wb: select a file to be ingested
wb -> sa: request: uploading the file
sa -> sa: save the file in a tmp directory
sa -> wb: response: the name of the uploaded file returned\n"Ingest the uploaded file" button enabled
dp -> wb: click "Ingest the uploaded file " button
wb -> sa: request: ingest the uploaded file
sa -> sa: ingest the file and save metadata and data themselves
sa -> wb: response: ingest result returned\n"go to Submission page" button enabled
dp -> wb: click "go to Submission page" button
wb -> sa: request: "Submission" page
sa -> wb: response: "Submission" page
dp -> wb: set Notary-service options (default:no)
dp -> wb: click the icon of column "Modify"
dp -> wb: toggle "No" button in Column "Notary-Service" to "Yes"
dp -> wb: click the check icon in Column "Modify"
dp -> wb: click "save Notary Service designation" button
wb -> sa: request: saving the NS option
sa -> wb: response: open the submission pane
dp -> wb: click "Submit Metadata" button
wb -> sa: request: metadata-only submission
sa -> dv: request: metadata-only submission
dv -> sa: response: OK
sa -> wb: response: "Show Payload(Metadata"\n "Show Response" buttons enabled
@enduml

PlantUML version 1.2021.4(Sun Apr 04 08:49:39 GMT 2021)
(GPL source distribution)
Java Runtime: OpenJDK Runtime Environment
JVM: OpenJDK 64-Bit Server VM
Default Encoding: UTF-8
Language: en
Country: US
--></g></svg>