<?xml version="1.0" encoding="UTF-8" standalone="no"?><svg xmlns="http://www.w3.org/2000/svg" xmlns:xlink="http://www.w3.org/1999/xlink" contentScriptType="application/ecmascript" contentStyleType="text/css" height="548px" preserveAspectRatio="none" style="width:469px;height:548px;" version="1.1" viewBox="0 0 469 548" width="469px" zoomAndPan="magnify"><defs><filter height="300%" id="f1ohmo9mzeq0un" width="300%" x="-1" y="-1"><feGaussianBlur result="blurOut" stdDeviation="2.0"/><feColorMatrix in="blurOut" result="blurOut2" type="matrix" values="0 0 0 0 0 0 0 0 0 0 0 0 0 0 0 0 0 0 .4 0"/><feOffset dx="4.0" dy="4.0" in="blurOut2" result="blurOut3"/><feBlend in="SourceGraphic" in2="blurOut3" mode="normal"/></filter></defs><g><line style="stroke:#A80036;stroke-width:1.0;stroke-dasharray:5.0,5.0;" x1="50" x2="50" y1="88.7999" y2="464.0001"/><line style="stroke:#A80036;stroke-width:1.0;stroke-dasharray:5.0,5.0;" x1="248.5" x2="248.5" y1="88.7999" y2="464.0001"/><line style="stroke:#A80036;stroke-width:1.0;stroke-dasharray:5.0,5.0;" x1="418" x2="418" y1="88.7999" y2="464.0001"/><text fill="#000000" font-family="sans-serif" font-size="14" lengthAdjust="spacing" textLength="85" x="5" y="85.9999">Data Provider</text><ellipse cx="50.5" cy="15" fill="#FEFECE" filter="url(#f1ohmo9mzeq0un)" rx="8" ry="8" style="stroke:#A80036;stroke-width:2.0;"/><path d="M50.5,23 L50.5,50 M37.5,31 L63.5,31 M50.5,50 L37.5,65 M50.5,50 L63.5,65 " fill="none" filter="url(#f1ohmo9mzeq0un)" style="stroke:#A80036;stroke-width:2.0;"/><text fill="#000000" font-family="sans-serif" font-size="14" lengthAdjust="spacing" textLength="85" x="5" y="477">Data Provider</text><ellipse cx="50.5" cy="489.8" fill="#FEFECE" filter="url(#f1ohmo9mzeq0un)" rx="8" ry="8" style="stroke:#A80036;stroke-width:2.0;"/><path d="M50.5,497.8 L50.5,524.8 M37.5,505.8 L63.5,505.8 M50.5,524.8 L37.5,539.8 M50.5,524.8 L63.5,539.8 " fill="none" filter="url(#f1ohmo9mzeq0un)" style="stroke:#A80036;stroke-width:2.0;"/><rect fill="#FEFECE" filter="url(#f1ohmo9mzeq0un)" height="30.7999" style="stroke:#A80036;stroke-width:1.5;" width="96" x="198.5" y="53"/><text fill="#000000" font-family="sans-serif" font-size="14" lengthAdjust="spacing" textLength="82" x="205.5" y="73.9999">Web Browser</text><rect fill="#FEFECE" filter="url(#f1ohmo9mzeq0un)" height="30.7999" style="stroke:#A80036;stroke-width:1.5;" width="96" x="198.5" y="463.0001"/><text fill="#000000" font-family="sans-serif" font-size="14" lengthAdjust="spacing" textLength="82" x="205.5" y="484">Web Browser</text><rect fill="#FEFECE" filter="url(#f1ohmo9mzeq0un)" height="30.7999" style="stroke:#A80036;stroke-width:1.5;" width="77" x="378" y="53"/><text fill="#000000" font-family="sans-serif" font-size="14" lengthAdjust="spacing" textLength="63" x="385" y="73.9999">Dataverse</text><rect fill="#FEFECE" filter="url(#f1ohmo9mzeq0un)" height="30.7999" style="stroke:#A80036;stroke-width:1.5;" width="77" x="378" y="463.0001"/><text fill="#000000" font-family="sans-serif" font-size="14" lengthAdjust="spacing" textLength="63" x="385" y="484">Dataverse</text><polygon fill="#A80036" points="236.5,116.3999,246.5,120.3999,236.5,124.3999,240.5,120.3999" style="stroke:#A80036;stroke-width:1.0;"/><line style="stroke:#A80036;stroke-width:1.0;" x1="50.5" x2="242.5" y1="120.3999" y2="120.3999"/><text fill="#000000" font-family="sans-serif" font-size="13" lengthAdjust="spacing" textLength="147" x="57.5" y="115.7999">type the URL of Dataverse</text><polygon fill="#A80036" points="406.5,146,416.5,150,406.5,154,410.5,150" style="stroke:#A80036;stroke-width:1.0;"/><line style="stroke:#A80036;stroke-width:1.0;" x1="248.5" x2="412.5" y1="150" y2="150"/><text fill="#000000" font-family="sans-serif" font-size="13" lengthAdjust="spacing" textLength="108" x="255.5" y="145.4">request:home page</text><polygon fill="#A80036" points="259.5,175.6,249.5,179.6,259.5,183.6,255.5,179.6" style="stroke:#A80036;stroke-width:1.0;"/><line style="stroke:#A80036;stroke-width:1.0;" x1="253.5" x2="417.5" y1="179.6" y2="179.6"/><text fill="#000000" font-family="sans-serif" font-size="13" lengthAdjust="spacing" textLength="117" x="265.5" y="175">response:home page</text><polygon fill="#A80036" points="236.5,205.2,246.5,209.2,236.5,213.2,240.5,209.2" style="stroke:#A80036;stroke-width:1.0;"/><line style="stroke:#A80036;stroke-width:1.0;" x1="50.5" x2="242.5" y1="209.2" y2="209.2"/><text fill="#000000" font-family="sans-serif" font-size="13" lengthAdjust="spacing" textLength="111" x="57.5" y="204.6">click the sign-in link</text><polygon fill="#A80036" points="406.5,234.8,416.5,238.8,406.5,242.8,410.5,238.8" style="stroke:#A80036;stroke-width:1.0;"/><line style="stroke:#A80036;stroke-width:1.0;" x1="248.5" x2="412.5" y1="238.8" y2="238.8"/><text fill="#000000" font-family="sans-serif" font-size="13" lengthAdjust="spacing" textLength="116" x="255.5" y="234.2">request: sign-in page</text><polygon fill="#A80036" points="259.5,264.4,249.5,268.4,259.5,272.4,255.5,268.4" style="stroke:#A80036;stroke-width:1.0;"/><line style="stroke:#A80036;stroke-width:1.0;" x1="253.5" x2="417.5" y1="268.4" y2="268.4"/><text fill="#000000" font-family="sans-serif" font-size="13" lengthAdjust="spacing" textLength="125" x="265.5" y="263.8">response: sign-in page</text><polygon fill="#A80036" points="236.5,294,246.5,298,236.5,302,240.5,298" style="stroke:#A80036;stroke-width:1.0;"/><line style="stroke:#A80036;stroke-width:1.0;" x1="50.5" x2="242.5" y1="298" y2="298"/><text fill="#000000" font-family="sans-serif" font-size="13" lengthAdjust="spacing" textLength="106" x="57.5" y="293.4">enter required data</text><polygon fill="#A80036" points="406.5,323.6,416.5,327.6,406.5,331.6,410.5,327.6" style="stroke:#A80036;stroke-width:1.0;"/><line style="stroke:#A80036;stroke-width:1.0;" x1="248.5" x2="412.5" y1="327.6" y2="327.6"/><text fill="#000000" font-family="sans-serif" font-size="13" lengthAdjust="spacing" textLength="138" x="255.5" y="323">request: register the user</text><polygon fill="#A80036" points="259.5,353.2001,249.5,357.2001,259.5,361.2001,255.5,357.2001" style="stroke:#A80036;stroke-width:1.0;"/><line style="stroke:#A80036;stroke-width:1.0;" x1="253.5" x2="417.5" y1="357.2001" y2="357.2001"/><text fill="#000000" font-family="sans-serif" font-size="13" lengthAdjust="spacing" textLength="143" x="265.5" y="352.6">response: OK (registered)</text><polygon fill="#A80036" points="236.5,382.8001,246.5,386.8001,236.5,390.8001,240.5,386.8001" style="stroke:#A80036;stroke-width:1.0;"/><line style="stroke:#A80036;stroke-width:1.0;" x1="50.5" x2="242.5" y1="386.8001" y2="386.8001"/><text fill="#000000" font-family="sans-serif" font-size="13" lengthAdjust="spacing" textLength="174" x="57.5" y="382.2001">click username/API Token link</text><polygon fill="#A80036" points="406.5,412.4001,416.5,416.4001,406.5,420.4001,410.5,416.4001" style="stroke:#A80036;stroke-width:1.0;"/><line style="stroke:#A80036;stroke-width:1.0;" x1="248.5" x2="412.5" y1="416.4001" y2="416.4001"/><text fill="#000000" font-family="sans-serif" font-size="13" lengthAdjust="spacing" textLength="137" x="255.5" y="411.8001">request: API-token page</text><polygon fill="#A80036" points="259.5,442.0001,249.5,446.0001,259.5,450.0001,255.5,446.0001" style="stroke:#A80036;stroke-width:1.0;"/><line style="stroke:#A80036;stroke-width:1.0;" x1="253.5" x2="417.5" y1="446.0001" y2="446.0001"/><text fill="#000000" font-family="sans-serif" font-size="13" lengthAdjust="spacing" textLength="146" x="265.5" y="441.4001">response: API-token page</text><!--MD5=[7e4eee87e44a13d7059f0f7c5607321a]
@startuml
'title Dataverse-side setup: Get an API Token
actor "Data Provider" as dp
participant "Web Browser" as wb
'participant TRSA as sa
'participant "File Storage" as fs
participant  Dataverse as dv
'participant "Notary Service" as ns

dp -> wb: type the URL of Dataverse
wb -> dv: request:home page
dv -> wb: response:home page
dp -> wb: click the sign-in link
wb -> dv: request: sign-in page
dv -> wb: response: sign-in page
dp -> wb: enter required data
wb -> dv: request: register the user
dv -> wb: response: OK (registered)
dp -> wb: click username/API Token link
wb -> dv: request: API-token page
dv -> wb: response: API-token page
@enduml

@startuml
actor "Data Provider" as dp
participant "Web Browser" as wb
participant  Dataverse as dv

dp -> wb: type the URL of Dataverse
wb -> dv: request:home page
dv -> wb: response:home page
dp -> wb: click the sign-in link
wb -> dv: request: sign-in page
dv -> wb: response: sign-in page
dp -> wb: enter required data
wb -> dv: request: register the user
dv -> wb: response: OK (registered)
dp -> wb: click username/API Token link
wb -> dv: request: API-token page
dv -> wb: response: API-token page
@enduml

PlantUML version 1.2021.4(Sun Apr 04 08:49:39 GMT 2021)
(GPL source distribution)
Java Runtime: OpenJDK Runtime Environment
JVM: OpenJDK 64-Bit Server VM
Default Encoding: UTF-8
Language: en
Country: US
--></g></svg>