<?xml version="1.0" encoding="UTF-8" standalone="no"?><svg xmlns="http://www.w3.org/2000/svg" xmlns:xlink="http://www.w3.org/1999/xlink" contentScriptType="application/ecmascript" contentStyleType="text/css" height="699px" preserveAspectRatio="none" style="width:732px;height:699px;" version="1.1" viewBox="0 0 732 699" width="732px" zoomAndPan="magnify"><defs><filter height="300%" id="f2vcls6yrhq9f" width="300%" x="-1" y="-1"><feGaussianBlur result="blurOut" stdDeviation="2.0"/><feColorMatrix in="blurOut" result="blurOut2" type="matrix" values="0 0 0 0 0 0 0 0 0 0 0 0 0 0 0 0 0 0 .4 0"/><feOffset dx="4.0" dy="4.0" in="blurOut2" result="blurOut3"/><feBlend in="SourceGraphic" in2="blurOut3" mode="normal"/></filter></defs><g><text fill="#000000" font-family="sans-serif" font-size="18" lengthAdjust="spacing" textLength="414" x="156.5" y="29.9999">Dataverse-side Initial Setup: Registration of a TRSA</text><line style="stroke:#A80036;stroke-width:1.0;stroke-dasharray:5.0,5.0;" x1="50" x2="50" y1="124.3998" y2="614.4"/><line style="stroke:#A80036;stroke-width:1.0;stroke-dasharray:5.0,5.0;" x1="313.5" x2="313.5" y1="124.3998" y2="614.4"/><line style="stroke:#A80036;stroke-width:1.0;stroke-dasharray:5.0,5.0;" x1="681" x2="681" y1="124.3998" y2="614.4"/><text fill="#000000" font-family="sans-serif" font-size="14" lengthAdjust="spacing" textLength="85" x="5" y="121.5998">Data Provider</text><ellipse cx="50.5" cy="50.5999" fill="#FEFECE" filter="url(#f2vcls6yrhq9f)" rx="8" ry="8" style="stroke:#A80036;stroke-width:2.0;"/><path d="M50.5,58.5999 L50.5,85.5999 M37.5,66.5999 L63.5,66.5999 M50.5,85.5999 L37.5,100.5999 M50.5,85.5999 L63.5,100.5999 " fill="none" filter="url(#f2vcls6yrhq9f)" style="stroke:#A80036;stroke-width:2.0;"/><text fill="#000000" font-family="sans-serif" font-size="14" lengthAdjust="spacing" textLength="85" x="5" y="627.3999">Data Provider</text><ellipse cx="50.5" cy="640.1999" fill="#FEFECE" filter="url(#f2vcls6yrhq9f)" rx="8" ry="8" style="stroke:#A80036;stroke-width:2.0;"/><path d="M50.5,648.1999 L50.5,675.1999 M37.5,656.1999 L63.5,656.1999 M50.5,675.1999 L37.5,690.1999 M50.5,675.1999 L63.5,690.1999 " fill="none" filter="url(#f2vcls6yrhq9f)" style="stroke:#A80036;stroke-width:2.0;"/><rect fill="#FEFECE" filter="url(#f2vcls6yrhq9f)" height="30.7999" style="stroke:#A80036;stroke-width:1.5;" width="96" x="263.5" y="88.5999"/><text fill="#000000" font-family="sans-serif" font-size="14" lengthAdjust="spacing" textLength="82" x="270.5" y="109.5998">Web Browser</text><rect fill="#FEFECE" filter="url(#f2vcls6yrhq9f)" height="30.7999" style="stroke:#A80036;stroke-width:1.5;" width="96" x="263.5" y="613.4"/><text fill="#000000" font-family="sans-serif" font-size="14" lengthAdjust="spacing" textLength="82" x="270.5" y="634.3999">Web Browser</text><rect fill="#FEFECE" filter="url(#f2vcls6yrhq9f)" height="30.7999" style="stroke:#A80036;stroke-width:1.5;" width="77" x="641" y="88.5999"/><text fill="#000000" font-family="sans-serif" font-size="14" lengthAdjust="spacing" textLength="63" x="648" y="109.5998">Dataverse</text><rect fill="#FEFECE" filter="url(#f2vcls6yrhq9f)" height="30.7999" style="stroke:#A80036;stroke-width:1.5;" width="77" x="641" y="613.4"/><text fill="#000000" font-family="sans-serif" font-size="14" lengthAdjust="spacing" textLength="63" x="648" y="634.3999">Dataverse</text><polygon fill="#A80036" points="301.5,151.9998,311.5,155.9998,301.5,159.9998,305.5,155.9998" style="stroke:#A80036;stroke-width:1.0;"/><line style="stroke:#A80036;stroke-width:1.0;" x1="50.5" x2="307.5" y1="155.9998" y2="155.9998"/><text fill="#000000" font-family="sans-serif" font-size="13" lengthAdjust="spacing" textLength="177" x="57.5" y="151.3998">type the URL of Root Dataverse</text><polygon fill="#A80036" points="669.5,181.5998,679.5,185.5998,669.5,189.5998,673.5,185.5998" style="stroke:#A80036;stroke-width:1.0;"/><line style="stroke:#A80036;stroke-width:1.0;" x1="313.5" x2="675.5" y1="185.5998" y2="185.5998"/><text fill="#000000" font-family="sans-serif" font-size="13" lengthAdjust="spacing" textLength="191" x="320.5" y="180.9998">request:Top (root Dataverse) page</text><polygon fill="#A80036" points="324.5,211.1998,314.5,215.1998,324.5,219.1998,320.5,215.1998" style="stroke:#A80036;stroke-width:1.0;"/><line style="stroke:#A80036;stroke-width:1.0;" x1="318.5" x2="680.5" y1="215.1998" y2="215.1998"/><text fill="#000000" font-family="sans-serif" font-size="13" lengthAdjust="spacing" textLength="107" x="330.5" y="210.5998">response:Top page</text><polygon fill="#A80036" points="301.5,240.7998,311.5,244.7998,301.5,248.7998,305.5,244.7998" style="stroke:#A80036;stroke-width:1.0;"/><line style="stroke:#A80036;stroke-width:1.0;" x1="50.5" x2="307.5" y1="244.7998" y2="244.7998"/><text fill="#000000" font-family="sans-serif" font-size="13" lengthAdjust="spacing" textLength="174" x="57.5" y="240.1998">click username/Dashboard link</text><polygon fill="#A80036" points="669.5,270.3999,679.5,274.3999,669.5,278.3999,673.5,274.3999" style="stroke:#A80036;stroke-width:1.0;"/><line style="stroke:#A80036;stroke-width:1.0;" x1="313.5" x2="675.5" y1="274.3999" y2="274.3999"/><text fill="#000000" font-family="sans-serif" font-size="13" lengthAdjust="spacing" textLength="140" x="320.5" y="269.7999">request: Dashboard page</text><polygon fill="#A80036" points="324.5,299.9999,314.5,303.9999,324.5,307.9999,320.5,303.9999" style="stroke:#A80036;stroke-width:1.0;"/><line style="stroke:#A80036;stroke-width:1.0;" x1="318.5" x2="680.5" y1="303.9999" y2="303.9999"/><text fill="#000000" font-family="sans-serif" font-size="13" lengthAdjust="spacing" textLength="149" x="330.5" y="299.3999">response: Dashboard page</text><polygon fill="#A80036" points="301.5,329.5999,311.5,333.5999,301.5,337.5999,305.5,333.5999" style="stroke:#A80036;stroke-width:1.0;"/><line style="stroke:#A80036;stroke-width:1.0;" x1="50.5" x2="307.5" y1="333.5999" y2="333.5999"/><text fill="#000000" font-family="sans-serif" font-size="13" lengthAdjust="spacing" textLength="167" x="57.5" y="328.9999">click "Manage TRSAs" button</text><polygon fill="#A80036" points="669.5,359.1999,679.5,363.1999,669.5,367.1999,673.5,363.1999" style="stroke:#A80036;stroke-width:1.0;"/><line style="stroke:#A80036;stroke-width:1.0;" x1="313.5" x2="675.5" y1="363.1999" y2="363.1999"/><text fill="#000000" font-family="sans-serif" font-size="13" lengthAdjust="spacing" textLength="202" x="320.5" y="358.5999">request: TRSA registry landing page</text><polygon fill="#A80036" points="324.5,388.7999,314.5,392.7999,324.5,396.7999,320.5,392.7999" style="stroke:#A80036;stroke-width:1.0;"/><line style="stroke:#A80036;stroke-width:1.0;" x1="318.5" x2="680.5" y1="392.7999" y2="392.7999"/><text fill="#000000" font-family="sans-serif" font-size="13" lengthAdjust="spacing" textLength="305" x="330.5" y="388.1999">response: landing page with a List of registered TRSAs</text><polygon fill="#A80036" points="301.5,418.3999,311.5,422.3999,301.5,426.3999,305.5,422.3999" style="stroke:#A80036;stroke-width:1.0;"/><line style="stroke:#A80036;stroke-width:1.0;" x1="50.5" x2="307.5" y1="422.3999" y2="422.3999"/><text fill="#000000" font-family="sans-serif" font-size="13" lengthAdjust="spacing" textLength="126" x="57.5" y="417.7999">click "+ Create" button</text><line style="stroke:#A80036;stroke-width:1.0;" x1="313.5" x2="355.5" y1="451.9999" y2="451.9999"/><line style="stroke:#A80036;stroke-width:1.0;" x1="355.5" x2="355.5" y1="451.9999" y2="464.9999"/><line style="stroke:#A80036;stroke-width:1.0;" x1="314.5" x2="355.5" y1="464.9999" y2="464.9999"/><polygon fill="#A80036" points="324.5,460.9999,314.5,464.9999,324.5,468.9999,320.5,464.9999" style="stroke:#A80036;stroke-width:1.0;"/><text fill="#000000" font-family="sans-serif" font-size="13" lengthAdjust="spacing" textLength="144" x="320.5" y="447.3999">request: TRSA-registry UI</text><line style="stroke:#A80036;stroke-width:1.0;" x1="313.5" x2="355.5" y1="494.6" y2="494.6"/><line style="stroke:#A80036;stroke-width:1.0;" x1="355.5" x2="355.5" y1="494.6" y2="507.6"/><line style="stroke:#A80036;stroke-width:1.0;" x1="314.5" x2="355.5" y1="507.6" y2="507.6"/><polygon fill="#A80036" points="324.5,503.6,314.5,507.6,324.5,511.6,320.5,507.6" style="stroke:#A80036;stroke-width:1.0;"/><text fill="#000000" font-family="sans-serif" font-size="13" lengthAdjust="spacing" textLength="132" x="320.5" y="490">response: pop up the UI</text><polygon fill="#A80036" points="301.5,533.2,311.5,537.2,301.5,541.2,305.5,537.2" style="stroke:#A80036;stroke-width:1.0;"/><line style="stroke:#A80036;stroke-width:1.0;" x1="50.5" x2="307.5" y1="537.2" y2="537.2"/><text fill="#000000" font-family="sans-serif" font-size="13" lengthAdjust="spacing" textLength="239" x="57.5" y="532.6">enter required data and click "Save" button</text><polygon fill="#A80036" points="669.5,562.8,679.5,566.8,669.5,570.8,673.5,566.8" style="stroke:#A80036;stroke-width:1.0;"/><line style="stroke:#A80036;stroke-width:1.0;" x1="313.5" x2="675.5" y1="566.8" y2="566.8"/><text fill="#000000" font-family="sans-serif" font-size="13" lengthAdjust="spacing" textLength="319" x="320.5" y="562.2">request: persist a new set of TRSA-related data in the DB</text><polygon fill="#A80036" points="324.5,592.4,314.5,596.4,324.5,600.4,320.5,596.4" style="stroke:#A80036;stroke-width:1.0;"/><line style="stroke:#A80036;stroke-width:1.0;" x1="318.5" x2="680.5" y1="596.4" y2="596.4"/><text fill="#000000" font-family="sans-serif" font-size="13" lengthAdjust="spacing" textLength="344" x="330.5" y="591.8">response: OK (saved) and list of registered TRSAs is updaded</text><!--MD5=[1e772a8dd7e9ced42c4662ceb32a1e8a]
@startuml
title Dataverse-side Initial Setup: Registration of a TRSA
actor "Data Provider" as dp
participant "Web Browser" as wb
'participant TRSA as trsa
'participant "File Storage" as fs
participant  Dataverse as dv
'participant "Notary Service" as ns

dp -> wb: type the URL of Root Dataverse
wb -> dv: request:Top (root Dataverse) page
dv -> wb: response:Top page
dp -> wb: click username/Dashboard link
wb -> dv: request: Dashboard page
dv -> wb: response: Dashboard page
dp -> wb: click "Manage TRSAs" button
wb -> dv: request: TRSA registry landing page
dv -> wb: response: landing page with a List of registered TRSAs
dp -> wb: click "+ Create" button
wb -> wb: request: TRSA-registry UI
wb -> wb: response: pop up the UI
dp -> wb: enter required data and click "Save" button
wb -> dv: request: persist a new set of TRSA-related data in the DB
dv -> wb: response: OK (saved) and list of registered TRSAs is updaded
@enduml

@startuml
title Dataverse-side Initial Setup: Registration of a TRSA
actor "Data Provider" as dp
participant "Web Browser" as wb
participant  Dataverse as dv

dp -> wb: type the URL of Root Dataverse
wb -> dv: request:Top (root Dataverse) page
dv -> wb: response:Top page
dp -> wb: click username/Dashboard link
wb -> dv: request: Dashboard page
dv -> wb: response: Dashboard page
dp -> wb: click "Manage TRSAs" button
wb -> dv: request: TRSA registry landing page
dv -> wb: response: landing page with a List of registered TRSAs
dp -> wb: click "+ Create" button
wb -> wb: request: TRSA-registry UI
wb -> wb: response: pop up the UI
dp -> wb: enter required data and click "Save" button
wb -> dv: request: persist a new set of TRSA-related data in the DB
dv -> wb: response: OK (saved) and list of registered TRSAs is updaded
@enduml

PlantUML version 1.2021.4(Sun Apr 04 08:49:39 GMT 2021)
(GPL source distribution)
Java Runtime: OpenJDK Runtime Environment
JVM: OpenJDK 64-Bit Server VM
Default Encoding: UTF-8
Language: en
Country: US
--></g></svg>