<?xml version="1.0" encoding="UTF-8" standalone="no"?><svg xmlns="http://www.w3.org/2000/svg" xmlns:xlink="http://www.w3.org/1999/xlink" contentScriptType="application/ecmascript" contentStyleType="text/css" height="623px" preserveAspectRatio="none" style="width:1157px;height:623px;" version="1.1" viewBox="0 0 1157 623" width="1157px" zoomAndPan="magnify"><defs><filter height="300%" id="f17ifs8h882te2" width="300%" x="-1" y="-1"><feGaussianBlur result="blurOut" stdDeviation="2.0"/><feColorMatrix in="blurOut" result="blurOut2" type="matrix" values="0 0 0 0 0 0 0 0 0 0 0 0 0 0 0 0 0 0 .4 0"/><feOffset dx="4.0" dy="4.0" in="blurOut2" result="blurOut3"/><feBlend in="SourceGraphic" in2="blurOut3" mode="normal"/></filter></defs><g><line style="stroke:#A80036;stroke-width:1.0;stroke-dasharray:5.0,5.0;" x1="50" x2="50" y1="88.7999" y2="538.8001"/><line style="stroke:#A80036;stroke-width:1.0;stroke-dasharray:5.0,5.0;" x1="430.5" x2="430.5" y1="88.7999" y2="538.8001"/><line style="stroke:#A80036;stroke-width:1.0;stroke-dasharray:5.0,5.0;" x1="854" x2="854" y1="88.7999" y2="538.8001"/><line style="stroke:#A80036;stroke-width:1.0;stroke-dasharray:5.0,5.0;" x1="1106" x2="1106" y1="88.7999" y2="538.8001"/><text fill="#000000" font-family="sans-serif" font-size="14" lengthAdjust="spacing" textLength="85" x="5" y="85.9999">Data Provider</text><ellipse cx="50.5" cy="15" fill="#FEFECE" filter="url(#f17ifs8h882te2)" rx="8" ry="8" style="stroke:#A80036;stroke-width:2.0;"/><path d="M50.5,23 L50.5,50 M37.5,31 L63.5,31 M50.5,50 L37.5,65 M50.5,50 L63.5,65 " fill="none" filter="url(#f17ifs8h882te2)" style="stroke:#A80036;stroke-width:2.0;"/><text fill="#000000" font-family="sans-serif" font-size="14" lengthAdjust="spacing" textLength="85" x="5" y="551.8001">Data Provider</text><ellipse cx="50.5" cy="564.6001" fill="#FEFECE" filter="url(#f17ifs8h882te2)" rx="8" ry="8" style="stroke:#A80036;stroke-width:2.0;"/><path d="M50.5,572.6001 L50.5,599.6001 M37.5,580.6001 L63.5,580.6001 M50.5,599.6001 L37.5,614.6001 M50.5,599.6001 L63.5,614.6001 " fill="none" filter="url(#f17ifs8h882te2)" style="stroke:#A80036;stroke-width:2.0;"/><rect fill="#FEFECE" filter="url(#f17ifs8h882te2)" height="30.7999" style="stroke:#A80036;stroke-width:1.5;" width="96" x="380.5" y="53"/><text fill="#000000" font-family="sans-serif" font-size="14" lengthAdjust="spacing" textLength="82" x="387.5" y="73.9999">Web Browser</text><rect fill="#FEFECE" filter="url(#f17ifs8h882te2)" height="30.7999" style="stroke:#A80036;stroke-width:1.5;" width="96" x="380.5" y="537.8001"/><text fill="#000000" font-family="sans-serif" font-size="14" lengthAdjust="spacing" textLength="82" x="387.5" y="558.8001">Web Browser</text><rect fill="#FEFECE" filter="url(#f17ifs8h882te2)" height="30.7999" style="stroke:#A80036;stroke-width:1.5;" width="51" x="827" y="53"/><text fill="#000000" font-family="sans-serif" font-size="14" lengthAdjust="spacing" textLength="37" x="834" y="73.9999">TRSA</text><rect fill="#FEFECE" filter="url(#f17ifs8h882te2)" height="30.7999" style="stroke:#A80036;stroke-width:1.5;" width="51" x="827" y="537.8001"/><text fill="#000000" font-family="sans-serif" font-size="14" lengthAdjust="spacing" textLength="37" x="834" y="558.8001">TRSA</text><rect fill="#FEFECE" filter="url(#f17ifs8h882te2)" height="30.7999" style="stroke:#A80036;stroke-width:1.5;" width="77" x="1066" y="53"/><text fill="#000000" font-family="sans-serif" font-size="14" lengthAdjust="spacing" textLength="63" x="1073" y="73.9999">Dataverse</text><rect fill="#FEFECE" filter="url(#f17ifs8h882te2)" height="30.7999" style="stroke:#A80036;stroke-width:1.5;" width="77" x="1066" y="537.8001"/><text fill="#000000" font-family="sans-serif" font-size="14" lengthAdjust="spacing" textLength="63" x="1073" y="558.8001">Dataverse</text><polygon fill="#A80036" points="418.5,116.3999,428.5,120.3999,418.5,124.3999,422.5,120.3999" style="stroke:#A80036;stroke-width:1.0;"/><line style="stroke:#A80036;stroke-width:1.0;" x1="50.5" x2="424.5" y1="120.3999" y2="120.3999"/><text fill="#000000" font-family="sans-serif" font-size="13" lengthAdjust="spacing" textLength="135" x="57.5" y="115.7999">type the url of the TRSA</text><polygon fill="#A80036" points="842.5,146,852.5,150,842.5,154,846.5,150" style="stroke:#A80036;stroke-width:1.0;"/><line style="stroke:#A80036;stroke-width:1.0;" x1="430.5" x2="848.5" y1="150" y2="150"/><text fill="#000000" font-family="sans-serif" font-size="13" lengthAdjust="spacing" textLength="147" x="437.5" y="145.4">request: Top (TRSA) page</text><polygon fill="#A80036" points="441.5,175.6,431.5,179.6,441.5,183.6,437.5,179.6" style="stroke:#A80036;stroke-width:1.0;"/><line style="stroke:#A80036;stroke-width:1.0;" x1="435.5" x2="853.5" y1="179.6" y2="179.6"/><text fill="#000000" font-family="sans-serif" font-size="13" lengthAdjust="spacing" textLength="110" x="447.5" y="175">response: Top page</text><polygon fill="#A80036" points="418.5,220.8,428.5,224.8,418.5,228.8,422.5,224.8" style="stroke:#A80036;stroke-width:1.0;"/><line style="stroke:#A80036;stroke-width:1.0;" x1="50.5" x2="424.5" y1="224.8" y2="224.8"/><text fill="#000000" font-family="sans-serif" font-size="13" lengthAdjust="spacing" textLength="230" x="57.5" y="204.6">click "Setup the paired Dataverse" button</text><text fill="#000000" font-family="sans-serif" font-size="13" lengthAdjust="spacing" textLength="178" x="60.5" y="220.2">from the menu in the main pane</text><polygon fill="#A80036" points="842.5,250.4,852.5,254.4,842.5,258.4,846.5,254.4" style="stroke:#A80036;stroke-width:1.0;"/><line style="stroke:#A80036;stroke-width:1.0;" x1="430.5" x2="848.5" y1="254.4" y2="254.4"/><text fill="#000000" font-family="sans-serif" font-size="13" lengthAdjust="spacing" textLength="170" x="437.5" y="249.8">request: Dataverse setup page</text><polygon fill="#A80036" points="441.5,280,431.5,284,441.5,288,437.5,284" style="stroke:#A80036;stroke-width:1.0;"/><line style="stroke:#A80036;stroke-width:1.0;" x1="435.5" x2="853.5" y1="284" y2="284"/><text fill="#000000" font-family="sans-serif" font-size="13" lengthAdjust="spacing" textLength="179" x="447.5" y="279.4">response: Dataverse setup page</text><polygon fill="#A80036" points="418.5,309.6,428.5,313.6,418.5,317.6,422.5,313.6" style="stroke:#A80036;stroke-width:1.0;"/><line style="stroke:#A80036;stroke-width:1.0;" x1="50.5" x2="424.5" y1="313.6" y2="313.6"/><text fill="#000000" font-family="sans-serif" font-size="13" lengthAdjust="spacing" textLength="356" x="57.5" y="309">type requested data in the 4 boxes and click its "Confirm" button</text><polygon fill="#A80036" points="842.5,339.2001,852.5,343.2001,842.5,347.2001,846.5,343.2001" style="stroke:#A80036;stroke-width:1.0;"/><line style="stroke:#A80036;stroke-width:1.0;" x1="430.5" x2="848.5" y1="343.2001" y2="343.2001"/><text fill="#000000" font-family="sans-serif" font-size="13" lengthAdjust="spacing" textLength="228" x="437.5" y="338.6">request: confirmation of the entered data</text><polygon fill="#A80036" points="1094.5,368.8001,1104.5,372.8001,1094.5,376.8001,1098.5,372.8001" style="stroke:#A80036;stroke-width:1.0;"/><line style="stroke:#A80036;stroke-width:1.0;" x1="854.5" x2="1100.5" y1="372.8001" y2="372.8001"/><text fill="#000000" font-family="sans-serif" font-size="13" lengthAdjust="spacing" textLength="228" x="861.5" y="368.2001">request: confirmation of the entered data</text><polygon fill="#A80036" points="865.5,398.4001,855.5,402.4001,865.5,406.4001,861.5,402.4001" style="stroke:#A80036;stroke-width:1.0;"/><line style="stroke:#A80036;stroke-width:1.0;" x1="859.5" x2="1105.5" y1="402.4001" y2="402.4001"/><text fill="#000000" font-family="sans-serif" font-size="13" lengthAdjust="spacing" textLength="114" x="871.5" y="397.8001">response: confirmed</text><polygon fill="#A80036" points="441.5,428.0001,431.5,432.0001,441.5,436.0001,437.5,432.0001" style="stroke:#A80036;stroke-width:1.0;"/><line style="stroke:#A80036;stroke-width:1.0;" x1="435.5" x2="853.5" y1="432.0001" y2="432.0001"/><text fill="#000000" font-family="sans-serif" font-size="13" lengthAdjust="spacing" textLength="400" x="447.5" y="427.4001">response: "Return to Main Menu" enabled and "Confirm" button disabled</text><polygon fill="#A80036" points="418.5,457.6001,428.5,461.6001,418.5,465.6001,422.5,461.6001" style="stroke:#A80036;stroke-width:1.0;"/><line style="stroke:#A80036;stroke-width:1.0;" x1="50.5" x2="424.5" y1="461.6001" y2="461.6001"/><text fill="#000000" font-family="sans-serif" font-size="13" lengthAdjust="spacing" textLength="156" x="57.5" y="457.0001">click "Return to Main Menu"</text><polygon fill="#A80036" points="842.5,487.2001,852.5,491.2001,842.5,495.2001,846.5,491.2001" style="stroke:#A80036;stroke-width:1.0;"/><line style="stroke:#A80036;stroke-width:1.0;" x1="430.5" x2="848.5" y1="491.2001" y2="491.2001"/><text fill="#000000" font-family="sans-serif" font-size="13" lengthAdjust="spacing" textLength="107" x="437.5" y="486.6001">request: Main page</text><polygon fill="#A80036" points="441.5,516.8001,431.5,520.8001,441.5,524.8001,437.5,520.8001" style="stroke:#A80036;stroke-width:1.0;"/><line style="stroke:#A80036;stroke-width:1.0;" x1="435.5" x2="853.5" y1="520.8001" y2="520.8001"/><text fill="#000000" font-family="sans-serif" font-size="13" lengthAdjust="spacing" textLength="116" x="447.5" y="516.2001">response: Main page</text><!--MD5=[73482219a7388ffff7d1f603e5ffed8a]
@startuml
'title Initial Setup Steps
actor "Data Provider" as dp
participant "Web Browser" as wb
participant TRSA as sa
'participant "File Storage" as fs
participant  Dataverse as dv
'participant "Notary Service" as ns
dp -> wb: type the url of the TRSA
wb -> sa: request: Top (TRSA) page
sa -> wb: response: Top page
dp -> wb: click "Setup the paired Dataverse" button\n from the menu in the main pane
wb -> sa: request: Dataverse setup page
sa -> wb: response: Dataverse setup page
dp -> wb: type requested data in the 4 boxes and click its "Confirm" button
wb -> sa: request: confirmation of the entered data
sa -> dv: request: confirmation of the entered data
dv -> sa: response: confirmed
sa -> wb: response: "Return to Main Menu" enabled and "Confirm" button disabled
dp -> wb: click "Return to Main Menu"
wb -> sa: request: Main page
sa -> wb: response: Main page
@enduml

@startuml
actor "Data Provider" as dp
participant "Web Browser" as wb
participant TRSA as sa
participant  Dataverse as dv
dp -> wb: type the url of the TRSA
wb -> sa: request: Top (TRSA) page
sa -> wb: response: Top page
dp -> wb: click "Setup the paired Dataverse" button\n from the menu in the main pane
wb -> sa: request: Dataverse setup page
sa -> wb: response: Dataverse setup page
dp -> wb: type requested data in the 4 boxes and click its "Confirm" button
wb -> sa: request: confirmation of the entered data
sa -> dv: request: confirmation of the entered data
dv -> sa: response: confirmed
sa -> wb: response: "Return to Main Menu" enabled and "Confirm" button disabled
dp -> wb: click "Return to Main Menu"
wb -> sa: request: Main page
sa -> wb: response: Main page
@enduml

PlantUML version 1.2021.4(Sun Apr 04 08:49:39 GMT 2021)
(GPL source distribution)
Java Runtime: OpenJDK Runtime Environment
JVM: OpenJDK 64-Bit Server VM
Default Encoding: UTF-8
Language: en
Country: US
--></g></svg>