<?xml version="1.0" encoding="UTF-8" standalone="no"?><svg xmlns="http://www.w3.org/2000/svg" xmlns:xlink="http://www.w3.org/1999/xlink" contentStyleType="text/css" height="645px" preserveAspectRatio="none" style="width:815px;height:645px;background:#FFFFFF;" version="1.1" viewBox="0 0 815 645" width="815px" zoomAndPan="magnify"><defs/><g><line style="stroke:#181818;stroke-width:0.5;stroke-dasharray:5.0,5.0;" x1="54" x2="54" y1="81.2969" y2="564.2891"/><line style="stroke:#181818;stroke-width:0.5;stroke-dasharray:5.0,5.0;" x1="353" x2="353" y1="81.2969" y2="564.2891"/><line style="stroke:#181818;stroke-width:0.5;stroke-dasharray:5.0,5.0;" x1="767" x2="767" y1="81.2969" y2="564.2891"/><text fill="#000000" font-family="sans-serif" font-size="14" lengthAdjust="spacing" textLength="92" x="5" y="77.9951">Data Provider</text><ellipse cx="54" cy="13.5" fill="#E2E2F0" rx="8" ry="8" style="stroke:#181818;stroke-width:0.5;"/><path d="M54,21.5 L54,48.5 M41,29.5 L67,29.5 M54,48.5 L41,63.5 M54,48.5 L67,63.5 " fill="none" style="stroke:#181818;stroke-width:0.5;"/><text fill="#000000" font-family="sans-serif" font-size="14" lengthAdjust="spacing" textLength="92" x="5" y="576.2842">Data Provider</text><ellipse cx="54" cy="588.0859" fill="#E2E2F0" rx="8" ry="8" style="stroke:#181818;stroke-width:0.5;"/><path d="M54,596.0859 L54,623.0859 M41,604.0859 L67,604.0859 M54,623.0859 L41,638.0859 M54,623.0859 L67,638.0859 " fill="none" style="stroke:#181818;stroke-width:0.5;"/><rect fill="#E2E2F0" height="30.2969" rx="2.5" ry="2.5" style="stroke:#181818;stroke-width:0.5;" width="106" x="300" y="50"/><text fill="#000000" font-family="sans-serif" font-size="14" lengthAdjust="spacing" textLength="92" x="307" y="69.9951">Web Browser</text><rect fill="#E2E2F0" height="30.2969" rx="2.5" ry="2.5" style="stroke:#181818;stroke-width:0.5;" width="106" x="300" y="563.2891"/><text fill="#000000" font-family="sans-serif" font-size="14" lengthAdjust="spacing" textLength="92" x="307" y="583.2842">Web Browser</text><rect fill="#E2E2F0" height="30.2969" rx="2.5" ry="2.5" style="stroke:#181818;stroke-width:0.5;" width="84" x="725" y="50"/><text fill="#000000" font-family="sans-serif" font-size="14" lengthAdjust="spacing" textLength="70" x="732" y="69.9951">Dataverse</text><rect fill="#E2E2F0" height="30.2969" rx="2.5" ry="2.5" style="stroke:#181818;stroke-width:0.5;" width="84" x="725" y="563.2891"/><text fill="#000000" font-family="sans-serif" font-size="14" lengthAdjust="spacing" textLength="70" x="732" y="583.2842">Dataverse</text><polygon fill="#181818" points="341,108.4297,351,112.4297,341,116.4297,345,112.4297" style="stroke:#181818;stroke-width:1.0;"/><line style="stroke:#181818;stroke-width:1.0;" x1="54" x2="347" y1="112.4297" y2="112.4297"/><text fill="#000000" font-family="sans-serif" font-size="13" lengthAdjust="spacing" textLength="201" x="61" y="107.3638">type the URL of Root Dataverse</text><polygon fill="#181818" points="755,137.5625,765,141.5625,755,145.5625,759,141.5625" style="stroke:#181818;stroke-width:1.0;"/><line style="stroke:#181818;stroke-width:1.0;" x1="353" x2="761" y1="141.5625" y2="141.5625"/><text fill="#000000" font-family="sans-serif" font-size="13" lengthAdjust="spacing" textLength="222" x="360" y="136.4966">request:Top (root Dataverse) page</text><polygon fill="#181818" points="364,166.6953,354,170.6953,364,174.6953,360,170.6953" style="stroke:#181818;stroke-width:1.0;"/><line style="stroke:#181818;stroke-width:1.0;" x1="358" x2="766" y1="170.6953" y2="170.6953"/><text fill="#000000" font-family="sans-serif" font-size="13" lengthAdjust="spacing" textLength="122" x="370" y="165.6294">response:Top page</text><polygon fill="#181818" points="341,195.8281,351,199.8281,341,203.8281,345,199.8281" style="stroke:#181818;stroke-width:1.0;"/><line style="stroke:#181818;stroke-width:1.0;" x1="54" x2="347" y1="199.8281" y2="199.8281"/><text fill="#000000" font-family="sans-serif" font-size="13" lengthAdjust="spacing" textLength="195" x="61" y="194.7622">click username/Dashboard link</text><polygon fill="#181818" points="755,224.9609,765,228.9609,755,232.9609,759,228.9609" style="stroke:#181818;stroke-width:1.0;"/><line style="stroke:#181818;stroke-width:1.0;" x1="353" x2="761" y1="228.9609" y2="228.9609"/><text fill="#000000" font-family="sans-serif" font-size="13" lengthAdjust="spacing" textLength="163" x="360" y="223.895">request: Dashboard page</text><polygon fill="#181818" points="364,254.0938,354,258.0938,364,262.0938,360,258.0938" style="stroke:#181818;stroke-width:1.0;"/><line style="stroke:#181818;stroke-width:1.0;" x1="358" x2="766" y1="258.0938" y2="258.0938"/><text fill="#000000" font-family="sans-serif" font-size="13" lengthAdjust="spacing" textLength="173" x="370" y="253.0278">response: Dashboard page</text><polygon fill="#181818" points="341,283.2266,351,287.2266,341,291.2266,345,287.2266" style="stroke:#181818;stroke-width:1.0;"/><line style="stroke:#181818;stroke-width:1.0;" x1="54" x2="347" y1="287.2266" y2="287.2266"/><text fill="#000000" font-family="sans-serif" font-size="13" lengthAdjust="spacing" textLength="182" x="61" y="282.1606">click "Manage TRSAs" button</text><polygon fill="#181818" points="755,312.3594,765,316.3594,755,320.3594,759,316.3594" style="stroke:#181818;stroke-width:1.0;"/><line style="stroke:#181818;stroke-width:1.0;" x1="353" x2="761" y1="316.3594" y2="316.3594"/><text fill="#000000" font-family="sans-serif" font-size="13" lengthAdjust="spacing" textLength="228" x="360" y="311.2935">request: TRSA registry landing page</text><polygon fill="#181818" points="364,341.4922,354,345.4922,364,349.4922,360,345.4922" style="stroke:#181818;stroke-width:1.0;"/><line style="stroke:#181818;stroke-width:1.0;" x1="358" x2="766" y1="345.4922" y2="345.4922"/><text fill="#000000" font-family="sans-serif" font-size="13" lengthAdjust="spacing" textLength="345" x="370" y="340.4263">response: landing page with a List of registered TRSAs</text><polygon fill="#181818" points="341,370.625,351,374.625,341,378.625,345,374.625" style="stroke:#181818;stroke-width:1.0;"/><line style="stroke:#181818;stroke-width:1.0;" x1="54" x2="347" y1="374.625" y2="374.625"/><text fill="#000000" font-family="sans-serif" font-size="13" lengthAdjust="spacing" textLength="145" x="61" y="369.5591">click "+ Create" button</text><line style="stroke:#181818;stroke-width:1.0;" x1="353" x2="395" y1="403.7578" y2="403.7578"/><line style="stroke:#181818;stroke-width:1.0;" x1="395" x2="395" y1="403.7578" y2="416.7578"/><line style="stroke:#181818;stroke-width:1.0;" x1="354" x2="395" y1="416.7578" y2="416.7578"/><polygon fill="#181818" points="364,412.7578,354,416.7578,364,420.7578,360,416.7578" style="stroke:#181818;stroke-width:1.0;"/><text fill="#000000" font-family="sans-serif" font-size="13" lengthAdjust="spacing" textLength="160" x="360" y="398.6919">request: TRSA-registry UI</text><line style="stroke:#181818;stroke-width:1.0;" x1="353" x2="395" y1="445.8906" y2="445.8906"/><line style="stroke:#181818;stroke-width:1.0;" x1="395" x2="395" y1="445.8906" y2="458.8906"/><line style="stroke:#181818;stroke-width:1.0;" x1="354" x2="395" y1="458.8906" y2="458.8906"/><polygon fill="#181818" points="364,454.8906,354,458.8906,364,462.8906,360,458.8906" style="stroke:#181818;stroke-width:1.0;"/><text fill="#000000" font-family="sans-serif" font-size="13" lengthAdjust="spacing" textLength="153" x="360" y="440.8247">response: pop up the UI</text><polygon fill="#181818" points="341,484.0234,351,488.0234,341,492.0234,345,488.0234" style="stroke:#181818;stroke-width:1.0;"/><line style="stroke:#181818;stroke-width:1.0;" x1="54" x2="347" y1="488.0234" y2="488.0234"/><text fill="#000000" font-family="sans-serif" font-size="13" lengthAdjust="spacing" textLength="275" x="61" y="482.9575">enter required data and click "Save" button</text><polygon fill="#181818" points="755,513.1563,765,517.1563,755,521.1563,759,517.1563" style="stroke:#181818;stroke-width:1.0;"/><line style="stroke:#181818;stroke-width:1.0;" x1="353" x2="761" y1="517.1563" y2="517.1563"/><text fill="#000000" font-family="sans-serif" font-size="13" lengthAdjust="spacing" textLength="364" x="360" y="512.0903">request: persist a new set of TRSA-related data in the DB</text><polygon fill="#181818" points="364,542.2891,354,546.2891,364,550.2891,360,546.2891" style="stroke:#181818;stroke-width:1.0;"/><line style="stroke:#181818;stroke-width:1.0;" x1="358" x2="766" y1="546.2891" y2="546.2891"/><text fill="#000000" font-family="sans-serif" font-size="13" lengthAdjust="spacing" textLength="390" x="370" y="541.2231">response: OK (saved) and list of registered TRSAs is updaded</text><!--MD5=[b7d477d5c1fc5151840c96ec4d00a48c]
@startuml
'title Dataverse-side Initial Setup: Registration of a TRSA
actor "Data Provider" as dp
participant "Web Browser" as wb
'participant TRSA as trsa
'participant "File Storage" as fs
participant  Dataverse as dv
'participant "Notary Service" as ns

dp -> wb: type the URL of Root Dataverse
wb -> dv: request:Top (root Dataverse) page
dv -> wb: response:Top page
dp -> wb: click username/Dashboard link
wb -> dv: request: Dashboard page
dv -> wb: response: Dashboard page
dp -> wb: click "Manage TRSAs" button
wb -> dv: request: TRSA registry landing page
dv -> wb: response: landing page with a List of registered TRSAs
dp -> wb: click "+ Create" button
wb -> wb: request: TRSA-registry UI
wb -> wb: response: pop up the UI
dp -> wb: enter required data and click "Save" button
wb -> dv: request: persist a new set of TRSA-related data in the DB
dv -> wb: response: OK (saved) and list of registered TRSAs is updaded
@enduml

@startuml
actor "Data Provider" as dp
participant "Web Browser" as wb
participant  Dataverse as dv

dp -> wb: type the URL of Root Dataverse
wb -> dv: request:Top (root Dataverse) page
dv -> wb: response:Top page
dp -> wb: click username/Dashboard link
wb -> dv: request: Dashboard page
dv -> wb: response: Dashboard page
dp -> wb: click "Manage TRSAs" button
wb -> dv: request: TRSA registry landing page
dv -> wb: response: landing page with a List of registered TRSAs
dp -> wb: click "+ Create" button
wb -> wb: request: TRSA-registry UI
wb -> wb: response: pop up the UI
dp -> wb: enter required data and click "Save" button
wb -> dv: request: persist a new set of TRSA-related data in the DB
dv -> wb: response: OK (saved) and list of registered TRSAs is updaded
@enduml

PlantUML version 1.2022.4(Sat Apr 09 13:29:17 UTC 2022)
(GPL source distribution)
Java Runtime: OpenJDK Runtime Environment
JVM: OpenJDK 64-Bit Server VM
Default Encoding: UTF-8
Language: en
Country: null
--></g></svg>