<?xml version="1.0" encoding="UTF-8" standalone="no"?><svg xmlns="http://www.w3.org/2000/svg" xmlns:xlink="http://www.w3.org/1999/xlink" contentStyleType="text/css" height="531px" preserveAspectRatio="none" style="width:501px;height:531px;background:#FFFFFF;" version="1.1" viewBox="0 0 501 531" width="501px" zoomAndPan="magnify"><defs/><g><line style="stroke:#181818;stroke-width:0.5;stroke-dasharray:5.0,5.0;" x1="54" x2="54" y1="81.2969" y2="450.8906"/><line style="stroke:#181818;stroke-width:0.5;stroke-dasharray:5.0,5.0;" x1="265" x2="265" y1="81.2969" y2="450.8906"/><line style="stroke:#181818;stroke-width:0.5;stroke-dasharray:5.0,5.0;" x1="453" x2="453" y1="81.2969" y2="450.8906"/><text fill="#000000" font-family="sans-serif" font-size="14" lengthAdjust="spacing" textLength="92" x="5" y="77.9951">Data Provider</text><ellipse cx="54" cy="13.5" fill="#E2E2F0" rx="8" ry="8" style="stroke:#181818;stroke-width:0.5;"/><path d="M54,21.5 L54,48.5 M41,29.5 L67,29.5 M54,48.5 L41,63.5 M54,48.5 L67,63.5 " fill="none" style="stroke:#181818;stroke-width:0.5;"/><text fill="#000000" font-family="sans-serif" font-size="14" lengthAdjust="spacing" textLength="92" x="5" y="462.8857">Data Provider</text><ellipse cx="54" cy="474.6875" fill="#E2E2F0" rx="8" ry="8" style="stroke:#181818;stroke-width:0.5;"/><path d="M54,482.6875 L54,509.6875 M41,490.6875 L67,490.6875 M54,509.6875 L41,524.6875 M54,509.6875 L67,524.6875 " fill="none" style="stroke:#181818;stroke-width:0.5;"/><rect fill="#E2E2F0" height="30.2969" rx="2.5" ry="2.5" style="stroke:#181818;stroke-width:0.5;" width="106" x="212" y="50"/><text fill="#000000" font-family="sans-serif" font-size="14" lengthAdjust="spacing" textLength="92" x="219" y="69.9951">Web Browser</text><rect fill="#E2E2F0" height="30.2969" rx="2.5" ry="2.5" style="stroke:#181818;stroke-width:0.5;" width="106" x="212" y="449.8906"/><text fill="#000000" font-family="sans-serif" font-size="14" lengthAdjust="spacing" textLength="92" x="219" y="469.8857">Web Browser</text><rect fill="#E2E2F0" height="30.2969" rx="2.5" ry="2.5" style="stroke:#181818;stroke-width:0.5;" width="84" x="411" y="50"/><text fill="#000000" font-family="sans-serif" font-size="14" lengthAdjust="spacing" textLength="70" x="418" y="69.9951">Dataverse</text><rect fill="#E2E2F0" height="30.2969" rx="2.5" ry="2.5" style="stroke:#181818;stroke-width:0.5;" width="84" x="411" y="449.8906"/><text fill="#000000" font-family="sans-serif" font-size="14" lengthAdjust="spacing" textLength="70" x="418" y="469.8857">Dataverse</text><polygon fill="#181818" points="253,108.4297,263,112.4297,253,116.4297,257,112.4297" style="stroke:#181818;stroke-width:1.0;"/><line style="stroke:#181818;stroke-width:1.0;" x1="54" x2="259" y1="112.4297" y2="112.4297"/><text fill="#000000" font-family="sans-serif" font-size="13" lengthAdjust="spacing" textLength="168" x="61" y="107.3638">type the URL of Dataverse</text><polygon fill="#181818" points="441,137.5625,451,141.5625,441,145.5625,445,141.5625" style="stroke:#181818;stroke-width:1.0;"/><line style="stroke:#181818;stroke-width:1.0;" x1="265" x2="447" y1="141.5625" y2="141.5625"/><text fill="#000000" font-family="sans-serif" font-size="13" lengthAdjust="spacing" textLength="126" x="272" y="136.4966">request:home page</text><polygon fill="#181818" points="276,166.6953,266,170.6953,276,174.6953,272,170.6953" style="stroke:#181818;stroke-width:1.0;"/><line style="stroke:#181818;stroke-width:1.0;" x1="270" x2="452" y1="170.6953" y2="170.6953"/><text fill="#000000" font-family="sans-serif" font-size="13" lengthAdjust="spacing" textLength="136" x="282" y="165.6294">response:home page</text><polygon fill="#181818" points="253,195.8281,263,199.8281,253,203.8281,257,199.8281" style="stroke:#181818;stroke-width:1.0;"/><line style="stroke:#181818;stroke-width:1.0;" x1="54" x2="259" y1="199.8281" y2="199.8281"/><text fill="#000000" font-family="sans-serif" font-size="13" lengthAdjust="spacing" textLength="123" x="61" y="194.7622">click the sign-in link</text><polygon fill="#181818" points="441,224.9609,451,228.9609,441,232.9609,445,228.9609" style="stroke:#181818;stroke-width:1.0;"/><line style="stroke:#181818;stroke-width:1.0;" x1="265" x2="447" y1="228.9609" y2="228.9609"/><text fill="#000000" font-family="sans-serif" font-size="13" lengthAdjust="spacing" textLength="135" x="272" y="223.895">request: sign-in page</text><polygon fill="#181818" points="276,254.0938,266,258.0938,276,262.0938,272,258.0938" style="stroke:#181818;stroke-width:1.0;"/><line style="stroke:#181818;stroke-width:1.0;" x1="270" x2="452" y1="258.0938" y2="258.0938"/><text fill="#000000" font-family="sans-serif" font-size="13" lengthAdjust="spacing" textLength="145" x="282" y="253.0278">response: sign-in page</text><polygon fill="#181818" points="253,283.2266,263,287.2266,253,291.2266,257,287.2266" style="stroke:#181818;stroke-width:1.0;"/><line style="stroke:#181818;stroke-width:1.0;" x1="54" x2="259" y1="287.2266" y2="287.2266"/><text fill="#000000" font-family="sans-serif" font-size="13" lengthAdjust="spacing" textLength="124" x="61" y="282.1606">enter required data</text><polygon fill="#181818" points="441,312.3594,451,316.3594,441,320.3594,445,316.3594" style="stroke:#181818;stroke-width:1.0;"/><line style="stroke:#181818;stroke-width:1.0;" x1="265" x2="447" y1="316.3594" y2="316.3594"/><text fill="#000000" font-family="sans-serif" font-size="13" lengthAdjust="spacing" textLength="163" x="272" y="311.2935">request: register the user</text><polygon fill="#181818" points="276,341.4922,266,345.4922,276,349.4922,272,345.4922" style="stroke:#181818;stroke-width:1.0;"/><line style="stroke:#181818;stroke-width:1.0;" x1="270" x2="452" y1="345.4922" y2="345.4922"/><text fill="#000000" font-family="sans-serif" font-size="13" lengthAdjust="spacing" textLength="164" x="282" y="340.4263">response: OK (registered)</text><polygon fill="#181818" points="253,370.625,263,374.625,253,378.625,257,374.625" style="stroke:#181818;stroke-width:1.0;"/><line style="stroke:#181818;stroke-width:1.0;" x1="54" x2="259" y1="374.625" y2="374.625"/><text fill="#000000" font-family="sans-serif" font-size="13" lengthAdjust="spacing" textLength="187" x="61" y="369.5591">click username/API Token link</text><polygon fill="#181818" points="441,399.7578,451,403.7578,441,407.7578,445,403.7578" style="stroke:#181818;stroke-width:1.0;"/><line style="stroke:#181818;stroke-width:1.0;" x1="265" x2="447" y1="403.7578" y2="403.7578"/><text fill="#000000" font-family="sans-serif" font-size="13" lengthAdjust="spacing" textLength="154" x="272" y="398.6919">request: API-token page</text><polygon fill="#181818" points="276,428.8906,266,432.8906,276,436.8906,272,432.8906" style="stroke:#181818;stroke-width:1.0;"/><line style="stroke:#181818;stroke-width:1.0;" x1="270" x2="452" y1="432.8906" y2="432.8906"/><text fill="#000000" font-family="sans-serif" font-size="13" lengthAdjust="spacing" textLength="164" x="282" y="427.8247">response: API-token page</text><!--MD5=[9cdae9a657bf1625347440f7a48adab3]
@startuml
'title Dataverse-side setup: Get an API Token
actor "Data Provider" as dp
participant "Web Browser" as wb
'participant TRSA as sa
'participant "File Storage" as fs
participant  Dataverse as dv
'participant "Notary Service" as ns

dp -> wb: type the URL of Dataverse
wb -> dv: request:home page
dv -> wb: response:home page
dp -> wb: click the sign-in link
wb -> dv: request: sign-in page
dv -> wb: response: sign-in page
dp -> wb: enter required data
wb -> dv: request: register the user
dv -> wb: response: OK (registered)
dp -> wb: click username/API Token link
wb -> dv: request: API-token page
dv -> wb: response: API-token page
@enduml

@startuml
actor "Data Provider" as dp
participant "Web Browser" as wb
participant  Dataverse as dv

dp -> wb: type the URL of Dataverse
wb -> dv: request:home page
dv -> wb: response:home page
dp -> wb: click the sign-in link
wb -> dv: request: sign-in page
dv -> wb: response: sign-in page
dp -> wb: enter required data
wb -> dv: request: register the user
dv -> wb: response: OK (registered)
dp -> wb: click username/API Token link
wb -> dv: request: API-token page
dv -> wb: response: API-token page
@enduml

PlantUML version 1.2022.4(Sat Apr 09 13:29:17 UTC 2022)
(GPL source distribution)
Java Runtime: OpenJDK Runtime Environment
JVM: OpenJDK 64-Bit Server VM
Default Encoding: UTF-8
Language: en
Country: null
--></g></svg>