<?xml version="1.0" encoding="UTF-8" standalone="no"?><svg xmlns="http://www.w3.org/2000/svg" xmlns:xlink="http://www.w3.org/1999/xlink" contentStyleType="text/css" height="605px" preserveAspectRatio="none" style="width:1310px;height:605px;background:#FFFFFF;" version="1.1" viewBox="0 0 1310 605" width="1310px" zoomAndPan="magnify"><defs/><g><line style="stroke:#181818;stroke-width:0.5;stroke-dasharray:5.0,5.0;" x1="54" x2="54" y1="81.2969" y2="524.2891"/><line style="stroke:#181818;stroke-width:0.5;stroke-dasharray:5.0,5.0;" x1="490" x2="490" y1="81.2969" y2="524.2891"/><line style="stroke:#181818;stroke-width:0.5;stroke-dasharray:5.0,5.0;" x1="972.5" x2="972.5" y1="81.2969" y2="524.2891"/><line style="stroke:#181818;stroke-width:0.5;stroke-dasharray:5.0,5.0;" x1="1262" x2="1262" y1="81.2969" y2="524.2891"/><text fill="#000000" font-family="sans-serif" font-size="14" lengthAdjust="spacing" textLength="92" x="5" y="77.9951">Data Provider</text><ellipse cx="54" cy="13.5" fill="#E2E2F0" rx="8" ry="8" style="stroke:#181818;stroke-width:0.5;"/><path d="M54,21.5 L54,48.5 M41,29.5 L67,29.5 M54,48.5 L41,63.5 M54,48.5 L67,63.5 " fill="none" style="stroke:#181818;stroke-width:0.5;"/><text fill="#000000" font-family="sans-serif" font-size="14" lengthAdjust="spacing" textLength="92" x="5" y="536.2842">Data Provider</text><ellipse cx="54" cy="548.0859" fill="#E2E2F0" rx="8" ry="8" style="stroke:#181818;stroke-width:0.5;"/><path d="M54,556.0859 L54,583.0859 M41,564.0859 L67,564.0859 M54,583.0859 L41,598.0859 M54,583.0859 L67,598.0859 " fill="none" style="stroke:#181818;stroke-width:0.5;"/><rect fill="#E2E2F0" height="30.2969" rx="2.5" ry="2.5" style="stroke:#181818;stroke-width:0.5;" width="106" x="437" y="50"/><text fill="#000000" font-family="sans-serif" font-size="14" lengthAdjust="spacing" textLength="92" x="444" y="69.9951">Web Browser</text><rect fill="#E2E2F0" height="30.2969" rx="2.5" ry="2.5" style="stroke:#181818;stroke-width:0.5;" width="106" x="437" y="523.2891"/><text fill="#000000" font-family="sans-serif" font-size="14" lengthAdjust="spacing" textLength="92" x="444" y="543.2842">Web Browser</text><rect fill="#E2E2F0" height="30.2969" rx="2.5" ry="2.5" style="stroke:#181818;stroke-width:0.5;" width="51" x="947.5" y="50"/><text fill="#000000" font-family="sans-serif" font-size="14" lengthAdjust="spacing" textLength="37" x="954.5" y="69.9951">TRSA</text><rect fill="#E2E2F0" height="30.2969" rx="2.5" ry="2.5" style="stroke:#181818;stroke-width:0.5;" width="51" x="947.5" y="523.2891"/><text fill="#000000" font-family="sans-serif" font-size="14" lengthAdjust="spacing" textLength="37" x="954.5" y="543.2842">TRSA</text><rect fill="#E2E2F0" height="30.2969" rx="2.5" ry="2.5" style="stroke:#181818;stroke-width:0.5;" width="84" x="1220" y="50"/><text fill="#000000" font-family="sans-serif" font-size="14" lengthAdjust="spacing" textLength="70" x="1227" y="69.9951">Dataverse</text><rect fill="#E2E2F0" height="30.2969" rx="2.5" ry="2.5" style="stroke:#181818;stroke-width:0.5;" width="84" x="1220" y="523.2891"/><text fill="#000000" font-family="sans-serif" font-size="14" lengthAdjust="spacing" textLength="70" x="1227" y="543.2842">Dataverse</text><polygon fill="#181818" points="478,108.4297,488,112.4297,478,116.4297,482,112.4297" style="stroke:#181818;stroke-width:1.0;"/><line style="stroke:#181818;stroke-width:1.0;" x1="54" x2="484" y1="112.4297" y2="112.4297"/><text fill="#000000" font-family="sans-serif" font-size="13" lengthAdjust="spacing" textLength="151" x="61" y="107.3638">type the url of the TRSA</text><polygon fill="#181818" points="961,137.5625,971,141.5625,961,145.5625,965,141.5625" style="stroke:#181818;stroke-width:1.0;"/><line style="stroke:#181818;stroke-width:1.0;" x1="490" x2="967" y1="141.5625" y2="141.5625"/><text fill="#000000" font-family="sans-serif" font-size="13" lengthAdjust="spacing" textLength="163" x="497" y="136.4966">request: Top (TRSA) page</text><polygon fill="#181818" points="501,166.6953,491,170.6953,501,174.6953,497,170.6953" style="stroke:#181818;stroke-width:1.0;"/><line style="stroke:#181818;stroke-width:1.0;" x1="495" x2="972" y1="170.6953" y2="170.6953"/><text fill="#000000" font-family="sans-serif" font-size="13" lengthAdjust="spacing" textLength="126" x="507" y="165.6294">response: Top page</text><polygon fill="#181818" points="478,210.9609,488,214.9609,478,218.9609,482,214.9609" style="stroke:#181818;stroke-width:1.0;"/><line style="stroke:#181818;stroke-width:1.0;" x1="54" x2="484" y1="214.9609" y2="214.9609"/><text fill="#000000" font-family="sans-serif" font-size="13" lengthAdjust="spacing" textLength="264" x="61" y="194.7622">click "Setup the paired Dataverse" button</text><text fill="#000000" font-family="sans-serif" font-size="13" lengthAdjust="spacing" textLength="208" x="65" y="209.895">from the menu in the main pane</text><polygon fill="#181818" points="961,240.0938,971,244.0938,961,248.0938,965,244.0938" style="stroke:#181818;stroke-width:1.0;"/><line style="stroke:#181818;stroke-width:1.0;" x1="490" x2="967" y1="244.0938" y2="244.0938"/><text fill="#000000" font-family="sans-serif" font-size="13" lengthAdjust="spacing" textLength="199" x="497" y="239.0278">request: Dataverse setup page</text><polygon fill="#181818" points="501,269.2266,491,273.2266,501,277.2266,497,273.2266" style="stroke:#181818;stroke-width:1.0;"/><line style="stroke:#181818;stroke-width:1.0;" x1="495" x2="972" y1="273.2266" y2="273.2266"/><text fill="#000000" font-family="sans-serif" font-size="13" lengthAdjust="spacing" textLength="209" x="507" y="268.1606">response: Dataverse setup page</text><polygon fill="#181818" points="478,298.3594,488,302.3594,478,306.3594,482,302.3594" style="stroke:#181818;stroke-width:1.0;"/><line style="stroke:#181818;stroke-width:1.0;" x1="54" x2="484" y1="302.3594" y2="302.3594"/><text fill="#000000" font-family="sans-serif" font-size="13" lengthAdjust="spacing" textLength="412" x="61" y="297.2935">type requested data in the 4 boxes and click its "Confirm" button</text><polygon fill="#181818" points="961,327.4922,971,331.4922,961,335.4922,965,331.4922" style="stroke:#181818;stroke-width:1.0;"/><line style="stroke:#181818;stroke-width:1.0;" x1="490" x2="967" y1="331.4922" y2="331.4922"/><text fill="#000000" font-family="sans-serif" font-size="13" lengthAdjust="spacing" textLength="265" x="497" y="326.4263">request: confirmation of the entered data</text><polygon fill="#181818" points="1250,356.625,1260,360.625,1250,364.625,1254,360.625" style="stroke:#181818;stroke-width:1.0;"/><line style="stroke:#181818;stroke-width:1.0;" x1="973" x2="1256" y1="360.625" y2="360.625"/><text fill="#000000" font-family="sans-serif" font-size="13" lengthAdjust="spacing" textLength="265" x="980" y="355.5591">request: confirmation of the entered data</text><polygon fill="#181818" points="984,385.7578,974,389.7578,984,393.7578,980,389.7578" style="stroke:#181818;stroke-width:1.0;"/><line style="stroke:#181818;stroke-width:1.0;" x1="978" x2="1261" y1="389.7578" y2="389.7578"/><text fill="#000000" font-family="sans-serif" font-size="13" lengthAdjust="spacing" textLength="131" x="990" y="384.6919">response: confirmed</text><polygon fill="#181818" points="501,414.8906,491,418.8906,501,422.8906,497,418.8906" style="stroke:#181818;stroke-width:1.0;"/><line style="stroke:#181818;stroke-width:1.0;" x1="495" x2="972" y1="418.8906" y2="418.8906"/><text fill="#000000" font-family="sans-serif" font-size="13" lengthAdjust="spacing" textLength="459" x="507" y="413.8247">response: "Return to Main Menu" enabled and "Confirm" button disabled</text><polygon fill="#181818" points="478,444.0234,488,448.0234,478,452.0234,482,448.0234" style="stroke:#181818;stroke-width:1.0;"/><line style="stroke:#181818;stroke-width:1.0;" x1="54" x2="484" y1="448.0234" y2="448.0234"/><text fill="#000000" font-family="sans-serif" font-size="13" lengthAdjust="spacing" textLength="173" x="61" y="442.9575">click "Return to Main Menu"</text><polygon fill="#181818" points="961,473.1563,971,477.1563,961,481.1563,965,477.1563" style="stroke:#181818;stroke-width:1.0;"/><line style="stroke:#181818;stroke-width:1.0;" x1="490" x2="967" y1="477.1563" y2="477.1563"/><text fill="#000000" font-family="sans-serif" font-size="13" lengthAdjust="spacing" textLength="123" x="497" y="472.0903">request: Main page</text><polygon fill="#181818" points="501,502.2891,491,506.2891,501,510.2891,497,506.2891" style="stroke:#181818;stroke-width:1.0;"/><line style="stroke:#181818;stroke-width:1.0;" x1="495" x2="972" y1="506.2891" y2="506.2891"/><text fill="#000000" font-family="sans-serif" font-size="13" lengthAdjust="spacing" textLength="133" x="507" y="501.2231">response: Main page</text><!--MD5=[7f803312cfcb347132abe695f72adb6c]
@startuml
'title Initial Setup Steps
actor "Data Provider" as dp
participant "Web Browser" as wb
participant TRSA as sa
'participant "File Storage" as fs
participant  Dataverse as dv
'participant "Notary Service" as ns
dp -> wb: type the url of the TRSA
wb -> sa: request: Top (TRSA) page
sa -> wb: response: Top page
dp -> wb: click "Setup the paired Dataverse" button\n from the menu in the main pane
wb -> sa: request: Dataverse setup page
sa -> wb: response: Dataverse setup page
dp -> wb: type requested data in the 4 boxes and click its "Confirm" button
wb -> sa: request: confirmation of the entered data
sa -> dv: request: confirmation of the entered data
dv -> sa: response: confirmed
sa -> wb: response: "Return to Main Menu" enabled and "Confirm" button disabled
dp -> wb: click "Return to Main Menu"
wb -> sa: request: Main page
sa -> wb: response: Main page
@enduml

@startuml
actor "Data Provider" as dp
participant "Web Browser" as wb
participant TRSA as sa
participant  Dataverse as dv
dp -> wb: type the url of the TRSA
wb -> sa: request: Top (TRSA) page
sa -> wb: response: Top page
dp -> wb: click "Setup the paired Dataverse" button\n from the menu in the main pane
wb -> sa: request: Dataverse setup page
sa -> wb: response: Dataverse setup page
dp -> wb: type requested data in the 4 boxes and click its "Confirm" button
wb -> sa: request: confirmation of the entered data
sa -> dv: request: confirmation of the entered data
dv -> sa: response: confirmed
sa -> wb: response: "Return to Main Menu" enabled and "Confirm" button disabled
dp -> wb: click "Return to Main Menu"
wb -> sa: request: Main page
sa -> wb: response: Main page
@enduml

PlantUML version 1.2022.4(Sat Apr 09 13:29:17 UTC 2022)
(GPL source distribution)
Java Runtime: OpenJDK Runtime Environment
JVM: OpenJDK 64-Bit Server VM
Default Encoding: UTF-8
Language: en
Country: null
--></g></svg>