<?xml version="1.0" encoding="UTF-8" standalone="no"?><svg xmlns="http://www.w3.org/2000/svg" xmlns:xlink="http://www.w3.org/1999/xlink" contentStyleType="text/css" height="501px" preserveAspectRatio="none" style="width:644px;height:501px;background:#FFFFFF;" version="1.1" viewBox="0 0 644 501" width="644px" zoomAndPan="magnify"><defs/><g><line style="stroke:#181818;stroke-width:0.5;stroke-dasharray:5.0,5.0;" x1="54" x2="54" y1="81.2969" y2="405.625"/><line style="stroke:#181818;stroke-width:0.5;stroke-dasharray:5.0,5.0;" x1="324" x2="324" y1="81.2969" y2="405.625"/><line style="stroke:#181818;stroke-width:0.5;stroke-dasharray:5.0,5.0;" x1="596" x2="596" y1="81.2969" y2="405.625"/><text fill="#000000" font-family="sans-serif" font-size="14" lengthAdjust="spacing" textLength="92" x="5" y="77.9951">Data Provider</text><ellipse cx="54" cy="13.5" fill="#E2E2F0" rx="8" ry="8" style="stroke:#181818;stroke-width:0.5;"/><path d="M54,21.5 L54,48.5 M41,29.5 L67,29.5 M54,48.5 L41,63.5 M54,48.5 L67,63.5 " fill="none" style="stroke:#181818;stroke-width:0.5;"/><text fill="#000000" font-family="sans-serif" font-size="14" lengthAdjust="spacing" textLength="92" x="5" y="417.6201">Data Provider</text><ellipse cx="54" cy="429.4219" fill="#E2E2F0" rx="8" ry="8" style="stroke:#181818;stroke-width:0.5;"/><path d="M54,437.4219 L54,464.4219 M41,445.4219 L67,445.4219 M54,464.4219 L41,479.4219 M54,464.4219 L67,479.4219 " fill="none" style="stroke:#181818;stroke-width:0.5;"/><rect fill="#E2E2F0" height="30.2969" rx="2.5" ry="2.5" style="stroke:#181818;stroke-width:0.5;" width="106" x="271" y="50"/><text fill="#000000" font-family="sans-serif" font-size="14" lengthAdjust="spacing" textLength="92" x="278" y="69.9951">Web Browser</text><rect fill="#E2E2F0" height="30.2969" rx="2.5" ry="2.5" style="stroke:#181818;stroke-width:0.5;" width="106" x="271" y="404.625"/><text fill="#000000" font-family="sans-serif" font-size="14" lengthAdjust="spacing" textLength="92" x="278" y="424.6201">Web Browser</text><rect fill="#E2E2F0" height="30.2969" rx="2.5" ry="2.5" style="stroke:#181818;stroke-width:0.5;" width="84" x="554" y="50"/><text fill="#000000" font-family="sans-serif" font-size="14" lengthAdjust="spacing" textLength="70" x="561" y="69.9951">Dataverse</text><rect fill="#E2E2F0" height="30.2969" rx="2.5" ry="2.5" style="stroke:#181818;stroke-width:0.5;" width="84" x="554" y="404.625"/><text fill="#000000" font-family="sans-serif" font-size="14" lengthAdjust="spacing" textLength="70" x="561" y="424.6201">Dataverse</text><polygon fill="#181818" points="312,108.4297,322,112.4297,312,116.4297,316,112.4297" style="stroke:#181818;stroke-width:1.0;"/><line style="stroke:#181818;stroke-width:1.0;" x1="54" x2="318" y1="112.4297" y2="112.4297"/><text fill="#000000" font-family="sans-serif" font-size="13" lengthAdjust="spacing" textLength="201" x="61" y="107.3638">type the URL of Root Dataverse</text><polygon fill="#181818" points="584,137.5625,594,141.5625,584,145.5625,588,141.5625" style="stroke:#181818;stroke-width:1.0;"/><line style="stroke:#181818;stroke-width:1.0;" x1="324" x2="590" y1="141.5625" y2="141.5625"/><text fill="#000000" font-family="sans-serif" font-size="13" lengthAdjust="spacing" textLength="222" x="331" y="136.4966">request:Top (root Dataverse) page</text><polygon fill="#181818" points="335,166.6953,325,170.6953,335,174.6953,331,170.6953" style="stroke:#181818;stroke-width:1.0;"/><line style="stroke:#181818;stroke-width:1.0;" x1="329" x2="595" y1="170.6953" y2="170.6953"/><text fill="#000000" font-family="sans-serif" font-size="13" lengthAdjust="spacing" textLength="122" x="341" y="165.6294">response:Top page</text><polygon fill="#181818" points="312,195.8281,322,199.8281,312,203.8281,316,199.8281" style="stroke:#181818;stroke-width:1.0;"/><line style="stroke:#181818;stroke-width:1.0;" x1="54" x2="318" y1="199.8281" y2="199.8281"/><text fill="#000000" font-family="sans-serif" font-size="13" lengthAdjust="spacing" textLength="246" x="61" y="194.7622">click "Add Data/New Dataverse" option</text><polygon fill="#181818" points="584,224.9609,594,228.9609,584,232.9609,588,228.9609" style="stroke:#181818;stroke-width:1.0;"/><line style="stroke:#181818;stroke-width:1.0;" x1="324" x2="590" y1="228.9609" y2="228.9609"/><text fill="#000000" font-family="sans-serif" font-size="13" lengthAdjust="spacing" textLength="248" x="331" y="223.895">request: New Dataverse Creation page</text><polygon fill="#181818" points="335,254.0938,325,258.0938,335,262.0938,331,258.0938" style="stroke:#181818;stroke-width:1.0;"/><line style="stroke:#181818;stroke-width:1.0;" x1="329" x2="595" y1="258.0938" y2="258.0938"/><text fill="#000000" font-family="sans-serif" font-size="13" lengthAdjust="spacing" textLength="201" x="341" y="253.0278">response: Datavese creation UI</text><line style="stroke:#181818;stroke-width:1.0;" x1="54" x2="96" y1="287.2266" y2="287.2266"/><line style="stroke:#181818;stroke-width:1.0;" x1="96" x2="96" y1="287.2266" y2="300.2266"/><line style="stroke:#181818;stroke-width:1.0;" x1="55" x2="96" y1="300.2266" y2="300.2266"/><polygon fill="#181818" points="65,296.2266,55,300.2266,65,304.2266,61,300.2266" style="stroke:#181818;stroke-width:1.0;"/><text fill="#000000" font-family="sans-serif" font-size="13" lengthAdjust="spacing" textLength="166" x="61" y="282.1606">prepare a Dataverse Alias</text><polygon fill="#181818" points="312,325.3594,322,329.3594,312,333.3594,316,329.3594" style="stroke:#181818;stroke-width:1.0;"/><line style="stroke:#181818;stroke-width:1.0;" x1="54" x2="318" y1="329.3594" y2="329.3594"/><text fill="#000000" font-family="sans-serif" font-size="13" lengthAdjust="spacing" textLength="215" x="61" y="324.2935">enter required data in the UI form</text><polygon fill="#181818" points="584,354.4922,594,358.4922,584,362.4922,588,358.4922" style="stroke:#181818;stroke-width:1.0;"/><line style="stroke:#181818;stroke-width:1.0;" x1="324" x2="590" y1="358.4922" y2="358.4922"/><text fill="#000000" font-family="sans-serif" font-size="13" lengthAdjust="spacing" textLength="179" x="331" y="353.4263">request: Dataverse creation</text><polygon fill="#181818" points="335,383.625,325,387.625,335,391.625,331,387.625" style="stroke:#181818;stroke-width:1.0;"/><line style="stroke:#181818;stroke-width:1.0;" x1="329" x2="595" y1="387.625" y2="387.625"/><text fill="#000000" font-family="sans-serif" font-size="13" lengthAdjust="spacing" textLength="232" x="341" y="382.5591">response: OK (render success page)</text><rect height="11.6406" style="stroke:#00000000;stroke-width:1.0;fill:none;" width="136" x="253" y="481.9219"/><text fill="#888888" font-family="sans-serif" font-size="10" lengthAdjust="spacing" textLength="136" x="253" y="491.2041">Note: log-in step is excluded</text><!--MD5=[7b7d08f66b1a21292d7b69c71327c60e]
@startuml
'title Dataverse-side Initial Setup: Create a New Dataverse
actor "Data Provider" as dp
participant "Web Browser" as wb
'participant TRSA as trsa
'participant "File Storage" as fs
participant  Dataverse as dv
'participant "Notary Service" as ns

dp -> wb: type the URL of Root Dataverse
wb -> dv: request:Top (root Dataverse) page
dv -> wb: response:Top page
dp -> wb: click "Add Data/New Dataverse" option
wb -> dv: request: New Dataverse Creation page
dv -> wb: response: Datavese creation UI
dp -> dp: prepare a Dataverse Alias
dp -> wb: enter required data in the UI form
wb -> dv: request: Dataverse creation
dv -> wb: response: OK (render success page)
footer Note: log-in step is excluded
@enduml

@startuml
actor "Data Provider" as dp
participant "Web Browser" as wb
participant  Dataverse as dv

dp -> wb: type the URL of Root Dataverse
wb -> dv: request:Top (root Dataverse) page
dv -> wb: response:Top page
dp -> wb: click "Add Data/New Dataverse" option
wb -> dv: request: New Dataverse Creation page
dv -> wb: response: Datavese creation UI
dp -> dp: prepare a Dataverse Alias
dp -> wb: enter required data in the UI form
wb -> dv: request: Dataverse creation
dv -> wb: response: OK (render success page)
footer Note: log-in step is excluded
@enduml

PlantUML version 1.2022.4(Sat Apr 09 13:29:17 UTC 2022)
(GPL source distribution)
Java Runtime: OpenJDK Runtime Environment
JVM: OpenJDK 64-Bit Server VM
Default Encoding: UTF-8
Language: en
Country: null
--></g></svg>