<?xml version="1.0" encoding="UTF-8" standalone="no"?><svg xmlns="http://www.w3.org/2000/svg" xmlns:xlink="http://www.w3.org/1999/xlink" contentStyleType="text/css" height="588px" preserveAspectRatio="none" style="width:644px;height:588px;background:#FFFFFF;" version="1.1" viewBox="0 0 644 588" width="644px" zoomAndPan="magnify"><defs/><g><line style="stroke:#181818;stroke-width:0.5;stroke-dasharray:5.0,5.0;" x1="54" x2="54" y1="81.2969" y2="493.0234"/><line style="stroke:#181818;stroke-width:0.5;stroke-dasharray:5.0,5.0;" x1="313" x2="313" y1="81.2969" y2="493.0234"/><line style="stroke:#181818;stroke-width:0.5;stroke-dasharray:5.0,5.0;" x1="596" x2="596" y1="81.2969" y2="493.0234"/><text fill="#000000" font-family="sans-serif" font-size="14" lengthAdjust="spacing" textLength="92" x="5" y="77.9951">Data Provider</text><ellipse cx="54" cy="13.5" fill="#E2E2F0" rx="8" ry="8" style="stroke:#181818;stroke-width:0.5;"/><path d="M54,21.5 L54,48.5 M41,29.5 L67,29.5 M54,48.5 L41,63.5 M54,48.5 L67,63.5 " fill="none" style="stroke:#181818;stroke-width:0.5;"/><text fill="#000000" font-family="sans-serif" font-size="14" lengthAdjust="spacing" textLength="92" x="5" y="505.0186">Data Provider</text><ellipse cx="54" cy="516.8203" fill="#E2E2F0" rx="8" ry="8" style="stroke:#181818;stroke-width:0.5;"/><path d="M54,524.8203 L54,551.8203 M41,532.8203 L67,532.8203 M54,551.8203 L41,566.8203 M54,551.8203 L67,566.8203 " fill="none" style="stroke:#181818;stroke-width:0.5;"/><rect fill="#E2E2F0" height="30.2969" rx="2.5" ry="2.5" style="stroke:#181818;stroke-width:0.5;" width="106" x="260" y="50"/><text fill="#000000" font-family="sans-serif" font-size="14" lengthAdjust="spacing" textLength="92" x="267" y="69.9951">Web Browser</text><rect fill="#E2E2F0" height="30.2969" rx="2.5" ry="2.5" style="stroke:#181818;stroke-width:0.5;" width="106" x="260" y="492.0234"/><text fill="#000000" font-family="sans-serif" font-size="14" lengthAdjust="spacing" textLength="92" x="267" y="512.0186">Web Browser</text><rect fill="#E2E2F0" height="30.2969" rx="2.5" ry="2.5" style="stroke:#181818;stroke-width:0.5;" width="84" x="554" y="50"/><text fill="#000000" font-family="sans-serif" font-size="14" lengthAdjust="spacing" textLength="70" x="561" y="69.9951">Dataverse</text><rect fill="#E2E2F0" height="30.2969" rx="2.5" ry="2.5" style="stroke:#181818;stroke-width:0.5;" width="84" x="554" y="492.0234"/><text fill="#000000" font-family="sans-serif" font-size="14" lengthAdjust="spacing" textLength="70" x="561" y="512.0186">Dataverse</text><polygon fill="#181818" points="301,108.4297,311,112.4297,301,116.4297,305,112.4297" style="stroke:#181818;stroke-width:1.0;"/><line style="stroke:#181818;stroke-width:1.0;" x1="54" x2="307" y1="112.4297" y2="112.4297"/><text fill="#000000" font-family="sans-serif" font-size="13" lengthAdjust="spacing" textLength="201" x="61" y="107.3638">type the URL of Root Dataverse</text><polygon fill="#181818" points="584,137.5625,594,141.5625,584,145.5625,588,141.5625" style="stroke:#181818;stroke-width:1.0;"/><line style="stroke:#181818;stroke-width:1.0;" x1="313" x2="590" y1="141.5625" y2="141.5625"/><text fill="#000000" font-family="sans-serif" font-size="13" lengthAdjust="spacing" textLength="222" x="320" y="136.4966">request:Top (root Dataverse) page</text><polygon fill="#181818" points="324,166.6953,314,170.6953,324,174.6953,320,170.6953" style="stroke:#181818;stroke-width:1.0;"/><line style="stroke:#181818;stroke-width:1.0;" x1="318" x2="595" y1="170.6953" y2="170.6953"/><text fill="#000000" font-family="sans-serif" font-size="13" lengthAdjust="spacing" textLength="122" x="330" y="165.6294">response:Top page</text><polygon fill="#181818" points="301,195.8281,311,199.8281,301,203.8281,305,199.8281" style="stroke:#181818;stroke-width:1.0;"/><line style="stroke:#181818;stroke-width:1.0;" x1="54" x2="307" y1="199.8281" y2="199.8281"/><text fill="#000000" font-family="sans-serif" font-size="13" lengthAdjust="spacing" textLength="235" x="61" y="194.7622">click the host Dataverse from the list</text><polygon fill="#181818" points="584,224.9609,594,228.9609,584,232.9609,588,228.9609" style="stroke:#181818;stroke-width:1.0;"/><line style="stroke:#181818;stroke-width:1.0;" x1="313" x2="590" y1="228.9609" y2="228.9609"/><text fill="#000000" font-family="sans-serif" font-size="13" lengthAdjust="spacing" textLength="178" x="320" y="223.895">request: the host dataverse</text><polygon fill="#181818" points="324,254.0938,314,258.0938,324,262.0938,320,258.0938" style="stroke:#181818;stroke-width:1.0;"/><line style="stroke:#181818;stroke-width:1.0;" x1="318" x2="595" y1="258.0938" y2="258.0938"/><text fill="#000000" font-family="sans-serif" font-size="13" lengthAdjust="spacing" textLength="258" x="330" y="253.0278">response: landing page of the dataverse</text><polygon fill="#181818" points="301,283.2266,311,287.2266,301,291.2266,305,287.2266" style="stroke:#181818;stroke-width:1.0;"/><line style="stroke:#181818;stroke-width:1.0;" x1="54" x2="307" y1="287.2266" y2="287.2266"/><text fill="#000000" font-family="sans-serif" font-size="13" lengthAdjust="spacing" textLength="231" x="61" y="282.1606">click "Add Data/New Dataset" option</text><polygon fill="#181818" points="584,312.3594,594,316.3594,584,320.3594,588,316.3594" style="stroke:#181818;stroke-width:1.0;"/><line style="stroke:#181818;stroke-width:1.0;" x1="313" x2="590" y1="316.3594" y2="316.3594"/><text fill="#000000" font-family="sans-serif" font-size="13" lengthAdjust="spacing" textLength="233" x="320" y="311.2935">request: New Dataset Creation page</text><polygon fill="#181818" points="324,341.4922,314,345.4922,324,349.4922,320,345.4922" style="stroke:#181818;stroke-width:1.0;"/><line style="stroke:#181818;stroke-width:1.0;" x1="318" x2="595" y1="345.4922" y2="345.4922"/><text fill="#000000" font-family="sans-serif" font-size="13" lengthAdjust="spacing" textLength="191" x="330" y="340.4263">response: Dataset creation UI</text><line style="stroke:#181818;stroke-width:1.0;" x1="54" x2="96" y1="374.625" y2="374.625"/><line style="stroke:#181818;stroke-width:1.0;" x1="96" x2="96" y1="374.625" y2="387.625"/><line style="stroke:#181818;stroke-width:1.0;" x1="55" x2="96" y1="387.625" y2="387.625"/><polygon fill="#181818" points="65,383.625,55,387.625,65,391.625,61,387.625" style="stroke:#181818;stroke-width:1.0;"/><text fill="#000000" font-family="sans-serif" font-size="13" lengthAdjust="spacing" textLength="147" x="61" y="369.5591">prepare a Dataset Title</text><polygon fill="#181818" points="301,412.7578,311,416.7578,301,420.7578,305,416.7578" style="stroke:#181818;stroke-width:1.0;"/><line style="stroke:#181818;stroke-width:1.0;" x1="54" x2="307" y1="416.7578" y2="416.7578"/><text fill="#000000" font-family="sans-serif" font-size="13" lengthAdjust="spacing" textLength="215" x="61" y="411.6919">enter required data in the UI form</text><polygon fill="#181818" points="584,441.8906,594,445.8906,584,449.8906,588,445.8906" style="stroke:#181818;stroke-width:1.0;"/><line style="stroke:#181818;stroke-width:1.0;" x1="313" x2="590" y1="445.8906" y2="445.8906"/><text fill="#000000" font-family="sans-serif" font-size="13" lengthAdjust="spacing" textLength="164" x="320" y="440.8247">request: Dataset creation</text><polygon fill="#181818" points="324,471.0234,314,475.0234,324,479.0234,320,475.0234" style="stroke:#181818;stroke-width:1.0;"/><line style="stroke:#181818;stroke-width:1.0;" x1="318" x2="595" y1="475.0234" y2="475.0234"/><text fill="#000000" font-family="sans-serif" font-size="13" lengthAdjust="spacing" textLength="259" x="330" y="469.9575">response: OK (render success message)</text><rect height="11.6406" style="stroke:#00000000;stroke-width:1.0;fill:none;" width="136" x="253" y="569.3203"/><text fill="#888888" font-family="sans-serif" font-size="10" lengthAdjust="spacing" textLength="136" x="253" y="578.6025">Note: log-in step is excluded</text><!--MD5=[596612224a9c064ec1e0d78611e271fd]
@startuml
'title Dataverse-side Initial Setup: Create a New Dataset
actor "Data Provider" as dp
participant "Web Browser" as wb
'participant TRSA as trsa
'participant "File Storage" as fs
participant  Dataverse as dv
'participant "Notary Service" as ns

dp -> wb: type the URL of Root Dataverse
wb -> dv: request:Top (root Dataverse) page
dv -> wb: response:Top page
dp -> wb: click the host Dataverse from the list
wb -> dv: request: the host dataverse
dv -> wb: response: landing page of the dataverse
dp -> wb: click "Add Data/New Dataset" option
wb -> dv: request: New Dataset Creation page
dv -> wb: response: Dataset creation UI
dp -> dp: prepare a Dataset Title
dp -> wb: enter required data in the UI form
wb -> dv: request: Dataset creation
dv -> wb: response: OK (render success message)
footer Note: log-in step is excluded
@enduml

@startuml
actor "Data Provider" as dp
participant "Web Browser" as wb
participant  Dataverse as dv

dp -> wb: type the URL of Root Dataverse
wb -> dv: request:Top (root Dataverse) page
dv -> wb: response:Top page
dp -> wb: click the host Dataverse from the list
wb -> dv: request: the host dataverse
dv -> wb: response: landing page of the dataverse
dp -> wb: click "Add Data/New Dataset" option
wb -> dv: request: New Dataset Creation page
dv -> wb: response: Dataset creation UI
dp -> dp: prepare a Dataset Title
dp -> wb: enter required data in the UI form
wb -> dv: request: Dataset creation
dv -> wb: response: OK (render success message)
footer Note: log-in step is excluded
@enduml

PlantUML version 1.2022.4(Sat Apr 09 13:29:17 UTC 2022)
(GPL source distribution)
Java Runtime: OpenJDK Runtime Environment
JVM: OpenJDK 64-Bit Server VM
Default Encoding: UTF-8
Language: en
Country: null
--></g></svg>